<?xml version="1.0" standalone="no"?>
<!DOCTYPE svg PUBLIC "-//W3C//DTD SVG 1.1//EN" "http://www.w3.org/Graphics/SVG/1.1/DTD/svg11.dtd" >
<svg xmlns="http://www.w3.org/2000/svg">
<metadata></metadata>
<defs>
<font id="arumsans_rgregular" horiz-adv-x="1126" >
<font-face units-per-em="2048" ascent="1536" descent="-512" />
<missing-glyph horiz-adv-x="471" />
<glyph unicode="&#xfb01;" horiz-adv-x="1116" d="M55 780v80h185v123q0 127 100.5 229.5t218.5 110.5q40 2 142 -13t184 -30l82 -16l-33 -99q-284 54 -352 58q-94 6 -141.5 -46.5t-47.5 -164.5v-152h565v-860l-153 -12v772l-412 2v-766l-155 -8q0 482 2 776z" />
<glyph unicode="&#xfb02;" horiz-adv-x="1116" d="M55 780v80h185v123q0 127 100.5 229.5t218.5 110.5q40 2 145.5 -17t169.5 -33.5t91 -21.5v-1251l-156 -12l2 1188q-59 10 -134 27.5t-95 19.5q-94 6 -141.5 -46.5t-47.5 -164.5v-152h271v-98h-271v-766l-155 -8q0 482 2 776z" />
<glyph unicode="&#xfb03;" horiz-adv-x="1665" d="M53 784l2 80h183v123q0 128 101.5 231t219.5 109q37 3 120 -11.5t173 -34.5t94 -21q79 61 170 67q40 3 141 -11t182 -29l81 -15l-33 -101q-280 54 -348 58q-189 12 -189 -213v-152h561v-860l-155 -10l2 772l-408 2v-768l-157 -6q2 478 2 774h-404l2 -768l-157 -6 q2 480 2 776zM391 864h404v123q0 93 61 184q-50 9 -150.5 32.5t-125.5 25.5q-189 12 -189 -213v-152z" />
<glyph unicode="&#xfb04;" horiz-adv-x="1669" d="M57 784v80h185v123q0 128 100.5 231t218.5 109q38 3 123.5 -12t173.5 -35t90 -20q83 61 172 67q40 3 140.5 -11.5t173.5 -28.5t86 -17v-1266l-156 -12l2 1200q-43 7 -94 16t-80.5 14t-48.5 7q-189 12 -189 -213v-152h271v-96h-271l2 -768l-157 -6q0 478 2 774h-406v-768 l-155 -6v776zM395 864h406v123q0 99 61 182q-49 9 -151 33.5t-127 26.5q-189 12 -189 -213v-152z" />
<glyph horiz-adv-x="2048" />
<glyph horiz-adv-x="2048" />
<glyph unicode="&#xd;" horiz-adv-x="2048" />
<glyph unicode=" "  horiz-adv-x="471" />
<glyph unicode="&#x09;" horiz-adv-x="471" />
<glyph unicode="&#xa0;" horiz-adv-x="471" />
<glyph unicode="!" horiz-adv-x="587" d="M184 94q0 43 34 74t83 31t83 -31t34 -74t-34 -73.5t-83 -30.5t-83 30.5t-34 73.5zM209 1333l186 15l-41 -1033l-106 -6z" />
<glyph unicode="&#x22;" horiz-adv-x="661" d="M82 1434l174 8v-455l-117 -16q0 115 -14 230.5t-29 174.5zM389 1434l174 8v-455l-117 -16q0 115 -14 230.5t-28 174.5z" />
<glyph unicode="#" horiz-adv-x="1146" d="M84 401v103h211l51 291h-213v102h232l65 363h131l-67 -363h247l66 363h127l-68 -363h199v-102h-217l-55 -291h229v-103h-248l-74 -401h-118l71 401h-252l-73 -401h-123l71 401h-192zM420 504h252l51 291h-248z" />
<glyph unicode="$" horiz-adv-x="1175" d="M131 207l55 98q21 -11 55.5 -29t125.5 -54t161 -50v465q-53 16 -87.5 28t-81 31t-76.5 39.5t-59 47.5t-45 61.5t-19 75.5q-9 117 100 209.5t268 107.5v213l119 6v-213q168 -3 320 -59l-47 -117q-15 7 -41 18t-98 32t-134 26v-412q58 -17 99 -32t90 -41.5t80.5 -57t56 -77 t31.5 -103.5q14 -133 -88.5 -237.5t-268.5 -116.5v-205l-119 -6v215q-92 12 -191 46t-153 62zM319 922q7 -59 60 -94t149 -64v377q-105 -15 -162 -73.5t-47 -145.5zM647 168q134 10 180.5 76t34.5 172q-7 63 -62 105t-153 77v-430z" />
<glyph unicode="%" horiz-adv-x="1644" d="M86 1012q3 82 34.5 149t80 106.5t102 61t105.5 21.5q4 0 12 -1t12 -1q1 1 73.5 1.5t182 1t164.5 1.5q69 1 155 5t137 7l52 4l61 -70l-788 -1357l-90 49l729 1286q-275 -8 -463 -8q90 -87 90 -244q0 -160 -95 -260t-237 -100t-231.5 95.5t-85.5 252.5zM221 1014 q0 -126 51 -194t134 -68q82 0 136 69.5t54 198.5q0 119 -51.5 183.5t-136.5 64.5q-31 0 -62 -13.5t-60 -41.5t-47 -79.5t-18 -119.5zM913 334q3 82 34.5 149t80 106.5t102 61t105.5 21.5q151 0 239.5 -84t88.5 -242q0 -160 -95 -260t-237 -100t-232 95.5t-86 252.5z M1049 336q0 -126 50.5 -194t133.5 -68q82 0 136 69.5t54 198.5q0 119 -51.5 183.5t-136.5 64.5q-31 0 -61.5 -13.5t-59.5 -41.5t-47 -79.5t-18 -119.5z" />
<glyph unicode="&#x26;" horiz-adv-x="1576" d="M76 379q16 130 107.5 234.5t201.5 150.5q-101 63 -139.5 126.5t-38.5 137.5q0 139 98 226.5t252 99.5q166 12 273.5 -79.5t87.5 -230.5q-24 -163 -285 -284q105 -71 228 -179.5t218 -213.5q46 57 79 123.5t46 120.5t19.5 99.5t6.5 71.5l-1 25l157 -2q-6 -144 -67 -281.5 t-160 -249.5q46 -55 100 -114.5t85 -91.5l30 -33l-168 -47q-61 82 -149 186q-221 -184 -522 -184q-129 0 -225 35.5t-147 93.5t-72.5 124.5t-14.5 135.5zM246 373q0 -61 20 -109t52 -78.5t75 -50t86 -27.5t88 -8q242 0 414 158q-60 67 -172 172q-101 92 -181 156t-110 82 l-29 18q-10 -4 -26.5 -12t-58 -37t-73.5 -62.5t-58.5 -88t-26.5 -113.5zM360 1071q-6 -72 40.5 -136t131.5 -104q3 2 28.5 13t47.5 22t53.5 31.5t54.5 42.5t41.5 54t22.5 67q12 90 -54.5 147t-160.5 52q-97 -6 -148 -55.5t-57 -133.5z" />
<glyph unicode="'" horiz-adv-x="378" d="M104 1434l175 8v-455l-117 -16q0 115 -14.5 230.5t-29.5 174.5z" />
<glyph unicode="(" horiz-adv-x="698" d="M135 608q0 99 16 191.5t43 165t62.5 138t74.5 114.5t77.5 90.5t74 69t62.5 47t43 28.5l16 8l64 -78q-8 -4 -22.5 -12.5t-56 -41t-79 -71t-83.5 -105t-79 -141t-55.5 -180.5t-22.5 -223q0 -105 21.5 -206t56 -179t76.5 -148t84 -119t76.5 -84.5t55.5 -53.5l22 -17l-74 -80 l-25.5 17t-63.5 51t-90 87t-95 124.5t-89.5 162.5t-63.5 202t-26 243z" />
<glyph unicode=")" horiz-adv-x="686" d="M18 1382l62 78q10 -5 27 -15t65.5 -46.5t93 -80t98.5 -117t93 -155.5t65.5 -197t26.5 -241t-25 -242.5t-65 -203t-88 -161.5t-96.5 -125t-88.5 -86t-65 -52l-25 -17l-73 80q8 6 22 17.5t55 52.5t77.5 86t82 117.5t78 149t54.5 178t22 206.5q0 110 -22 212t-57 177.5 t-77 141t-84 109t-77 75t-57 45.5z" />
<glyph unicode="*" horiz-adv-x="759" d="M53 1243l53 94l236 -151l-18 260h108l-14 -260l233 149l56 -92l-248 -123l237 -123l-53 -92l-225 148l14 -258h-106l16 258l-227 -154l-56 94l246 125z" />
<glyph unicode="+" horiz-adv-x="1124" d="M131 567l4 101h369v379l117 4v-383h372l-6 -101h-366v-405l-117 -8v413h-373z" />
<glyph unicode="," horiz-adv-x="524" d="M186 -244q5 4 13.5 11t31.5 28.5t41 42.5t35.5 48.5t22.5 50.5q-1 7 1 11t-1.5 8t-4 6t-5.5 4.5l-7 3.5t-7 2.5t-7 2.5q-34 16 -56 45t-22 64q0 47 34 81t81 34q70 0 106.5 -52t36.5 -124q0 -54 -20 -99q-23 -46 -80.5 -101.5t-103.5 -87.5l-46 -32z" />
<glyph unicode="-" horiz-adv-x="659" d="M57 438v109h541v-109h-541z" />
<glyph unicode="." horiz-adv-x="514" d="M205 98q0 46 35 79.5t82 33.5q49 0 83.5 -33.5t34.5 -79.5q0 -47 -34 -79.5t-84 -32.5q-48 0 -82.5 32.5t-34.5 79.5z" />
<glyph unicode="/" horiz-adv-x="864" d="M25 -90l700 1530l104 -37l-700 -1530z" />
<glyph unicode="0" d="M92 666q0 190 59 347t168 250t246 93q229 0 351 -170.5t122 -519.5q0 -115 -19 -218t-58 -189.5t-95 -149.5t-133 -98.5t-168 -35.5q-105 0 -187 35.5t-135.5 97.5t-87.5 151t-48.5 188.5t-14.5 218.5zM260 659q0 -559 305 -559q96 0 166.5 74t105.5 199.5t35 285.5 q0 290 -80 433t-227 143q-87 0 -157.5 -77.5t-109 -209.5t-38.5 -289z" />
<glyph unicode="1" d="M111 1137l557 211v-1348l-164 -8v1147l-367 -92z" />
<glyph unicode="2" d="M37 90q15 10 42 28.5t104 76.5t148 117.5t158 145.5t151 166t110.5 173t52.5 174q7 107 -60.5 181.5t-210.5 80.5q-89 4 -191 -22.5t-159 -54.5l-57 -28l-45 127q210 95 489 95q71 0 133 -14t116.5 -45.5t90.5 -77.5t52.5 -115t5.5 -154q-10 -77 -55 -164.5t-110 -166 t-141 -155.5t-150 -138.5t-135 -109t-98 -73.5l-38 -26h753l-12 -111h-918z" />
<glyph unicode="3" d="M113 37l32 119q199 -46 379 -50q63 -2 117.5 10t103.5 38.5t81.5 76t41.5 117.5q8 66 -9.5 117.5t-54.5 85t-92.5 54.5t-119 29.5t-137.5 6.5l-125 -2l-2 119q27 -2 125 8q42 4 84 12.5t92 27t88 44t66.5 66t33.5 90.5q11 106 -50 165t-196 68q-61 4 -126 -5t-114 -24.5 t-89 -31.5t-61 -28l-21 -11l-35 123q193 90 422 90q42 0 65 -2q44 -3 89 -12.5t98 -33t92.5 -57.5t63.5 -91t18 -128q-9 -115 -111 -208.5t-239 -110.5q189 0 303.5 -99.5t105.5 -240.5q-7 -99 -51 -175.5t-117 -123t-164.5 -70t-199.5 -23.5q-71 0 -168 15t-158 30z" />
<glyph unicode="4" d="M45 477l676 869l137 -15v-876h248l-10 -107h-238v-348l-162 -10v358h-590zM188 459l508 -2l6 692z" />
<glyph unicode="5" d="M104 45l35 109q148 -33 275 -37q191 -7 297 71q59 44 89.5 115.5t30.5 147.5q-3 126 -78 194.5t-190 79.5q-20 2 -59 2q-61 0 -122.5 -11.5t-92.5 -22.5l-31 -11l-80 66l78 591h731v-116h-600l-70 -396q76 29 228 29q104 0 186 -27.5t131.5 -70t82 -99.5t44.5 -110.5 t12 -108.5q0 -93 -33.5 -174t-99 -144t-172.5 -99.5t-243 -36.5q-76 0 -163 15t-136 29z" />
<glyph unicode="6" d="M104 420q-1 105 19.5 209t69 212.5t120.5 203t183 179.5t249 142q29 -53 43 -86q-162 -80 -283 -220t-181 -329q118 75 241 78q129 3 234.5 -40t171 -135t65.5 -220q0 -193 -136 -313.5t-341 -120.5q-197 0 -324.5 123.5t-130.5 316.5zM274 432q-6 -72 17.5 -135.5 t66 -106.5t99 -67.5t116.5 -24.5q126 0 212.5 85.5t86.5 230.5q0 132 -83 208t-214 76q-37 0 -73.5 -7t-76.5 -26t-71 -48t-53 -76.5t-27 -108.5z" />
<glyph unicode="7" d="M180 1223l15 110h817l65 -110q-8 -8 -22.5 -23.5t-57.5 -71.5t-84.5 -121t-96.5 -172t-101 -224t-91 -278t-73 -333l-182 -12q3 25 11 71t45.5 186.5t90.5 280.5t154.5 333t228.5 364h-719z" />
<glyph unicode="8" d="M74 381q2 46 15.5 88t31.5 72t47 58t52.5 45.5t57 35t51 25t44.5 18.5q-100 51 -162.5 126t-65.5 167q-3 138 118 235.5t296 108.5q173 9 296.5 -79t119.5 -226q-3 -61 -28.5 -114.5t-56 -87t-73 -63t-65.5 -40.5t-47 -21q65 -24 114 -48t96.5 -58t77 -72.5t46 -91 t12.5 -113.5q-7 -107 -76.5 -188t-179 -121.5t-240.5 -40.5q-105 0 -191.5 22.5t-153.5 68t-103 121t-33 173.5zM236 379q6 -124 99 -193t253 -69q124 0 212 65t89 166q1 52 -22.5 95t-49.5 70t-93 59t-103 45t-128 44q-13 5 -20 7q-27 -7 -53.5 -18t-62.5 -35t-62 -54 t-43.5 -77.5t-15.5 -104.5zM305 1016q3 -39 21.5 -72t42.5 -56t66 -47t74.5 -38t86.5 -35q24 10 53 28.5t69 53t66.5 87.5t26.5 114q0 94 -74 150t-184 50q-125 -7 -189 -76t-59 -159z" />
<glyph unicode="9" d="M96 920q0 194 136.5 315t340.5 121q198 0 325 -126.5t132 -326.5q-2 -108 -24.5 -212t-71.5 -211.5t-121.5 -199.5t-181.5 -174t-244 -137q-27 51 -41 84q161 78 282 219t181 330q-109 -69 -240 -76q-128 -8 -235 35.5t-172.5 137.5t-65.5 221zM262 920q0 -131 82.5 -208 t212.5 -77q46 0 92.5 13.5t92 42.5t77.5 83.5t39 128.5q14 145 -70.5 239.5t-228.5 94.5q-126 0 -211.5 -85t-85.5 -232z" />
<glyph unicode=":" horiz-adv-x="501" d="M170 98q0 46 35 79.5t84 33.5t83 -33.5t34 -79.5q0 -47 -34 -79.5t-83 -32.5q-50 0 -84.5 32.5t-34.5 79.5zM170 752q0 47 35 80.5t84 33.5t83 -33.5t34 -80.5q0 -46 -34 -79.5t-83 -33.5t-84 33.5t-35 79.5z" />
<glyph unicode=";" horiz-adv-x="501" d="M133 -244q5 4 14 11t32 28.5t41.5 42.5t36 48.5t22.5 50.5q-1 10 0.5 14.5t-5 9.5t-8 6.5t-9.5 4t-9 3.5q-35 16 -57.5 45t-22.5 64q0 47 34 81t81 34q71 0 108 -53.5t37 -125.5q0 -51 -20 -96q-23 -46 -80.5 -101.5t-103.5 -87.5l-46 -32zM180 752q0 47 35 80.5t84 33.5 t83 -33.5t34 -80.5q0 -46 -34 -79.5t-83 -33.5t-84 33.5t-35 79.5z" />
<glyph unicode="&#x3c;" horiz-adv-x="1052" d="M207 442v86l586 426l67 -94l-520 -366l516 -398l-65 -90z" />
<glyph unicode="=" horiz-adv-x="1114" d="M129 401l4 99h858l-6 -99h-856zM129 711l4 98h858l-6 -98h-856z" />
<glyph unicode="&#x3e;" horiz-adv-x="1052" d="M221 864l66 94l585 -426v-86l-583 -436l-66 90l516 398z" />
<glyph unicode="?" horiz-adv-x="892" d="M100 1307q228 69 412 45q73 -9 135.5 -39t107 -78t64.5 -117t8 -149q-10 -64 -47 -123t-85 -100.5t-102.5 -77.5t-100 -58.5t-76 -40.5t-31.5 -26q-2 -17 4.5 -65t13.5 -87l7 -39l-103 -22q-1 3 -3.5 8.5t-9 22t-12.5 33t-13.5 39.5t-13 43t-9.5 41t-5 37.5t2 28.5t11 17 q11 7 51 28.5l80 43t90 57t88.5 71.5t67.5 84.5t35 98.5q24 242 -207 268q-59 6 -139 -5.5t-130 -26.5l-51 -15zM233 92q0 44 34 75.5t83 31.5t83 -31.5t34 -75.5t-34 -75t-83 -31t-83 31t-34 75z" />
<glyph unicode="@" horiz-adv-x="1656" d="M137 446q5 121 49 226.5t115.5 182.5t165 132t198.5 82t214 27q78 0 155.5 -16t154 -54t135 -93t94.5 -140t36 -189q0 -74 -21 -135t-55 -101.5t-81 -71t-94 -47.5t-100 -27.5t-94 -13t-79 -1.5q-15 0 -40 20.5t-22 34.5l29 107q-8 -7 -22.5 -19t-55.5 -41t-78 -50 t-80.5 -35t-72.5 -7q-47 10 -70.5 52t-23.5 102q0 109 65 217q115 184 293 168q37 -4 70.5 -16t47.5 -22l15 -11l35 61l96 -12q-102 -357 -112 -396q-8 -25 -5.5 -41t19.5 -16q106 0 198.5 85.5t92.5 197.5q0 52 -13.5 104t-47 105.5t-83.5 94.5t-129.5 67t-177.5 26 q-112 0 -205.5 -32t-154 -81t-105 -114t-66.5 -125t-30 -119q-6 -44 -6 -88q0 -95 28.5 -177t83 -145.5t142 -100t198.5 -36.5q79 0 161.5 22.5t125.5 44.5l43 23l60 -90q-7 -5 -20.5 -12.5t-56.5 -26.5t-88 -34t-111.5 -27t-131.5 -12q-48 0 -98.5 7t-111.5 25.5t-115 47 t-105.5 75.5t-87.5 106.5t-55.5 145t-14.5 186.5zM618 385q0 -48 31 -61t97 24t118 80.5t58 56.5l34 138q-51 39 -125 39q-59 0 -103 -41t-69 -89q-41 -91 -41 -147z" />
<glyph unicode="A" horiz-adv-x="1259" d="M35 -2l520 1335l201 15l473 -1348l-170 -12l-135 389h-566l-151 -389zM406 494h477l-228 702z" />
<glyph unicode="B" horiz-adv-x="1261" d="M205 1305q266 43 440 43q213 0 323.5 -84.5t110.5 -233.5q0 -109 -76.5 -191.5t-164.5 -103.5q128 -15 211.5 -94.5t83.5 -228.5q0 -84 -33.5 -159t-98 -135t-170 -95t-237.5 -35q-87 0 -183.5 10t-150.5 20l-53 11zM371 131q82 -20 184 -20q54 0 102 5.5t102 23.5 t93 46.5t64.5 79t25.5 117.5t-22.5 116.5t-58.5 78t-89.5 45.5t-105.5 22q-43 4 -94 4h-21q-52 -1 -97 -3.5t-64 -4.5l-19 -2v-508zM371 764h157q174 0 276 69t105 187q1 105 -84 157q-76 47 -203 47q-15 0 -30 -1q-50 -2 -105.5 -6t-85.5 -7l-30 -4v-442z" />
<glyph unicode="C" horiz-adv-x="1271" d="M104 633q0 134 38 251t100.5 199t143.5 142t166.5 90t170.5 33h23q62 0 134 -13q84 -16 145.5 -35.5t160.5 -56.5l-45 -117q-31 11 -80.5 27.5t-159.5 44t-170 27.5q-86 0 -166.5 -36t-145 -103t-104.5 -172.5t-43 -233.5v-13q0 -125 38 -229q40 -110 105.5 -176.5 t142.5 -102.5t155 -38h9q56 0 118 11q66 12 118.5 30.5t96 37t67.5 31.5l23 13l55 -101q-11 -6 -31 -16t-79 -36t-116 -46.5t-133 -37.5t-139 -19q-14 -1 -28 -1q-109 -1 -205 35q-108 40 -189.5 119t-128.5 205.5t-47 286.5z" />
<glyph unicode="D" horiz-adv-x="1409" d="M205 47v1251q23 6 65.5 14.5t167 23t242.5 14.5q99 -1 184.5 -18.5t169.5 -61.5t143 -112t95.5 -178t36.5 -253q0 -148 -38 -271.5t-103 -209.5t-153 -146q-87 -58 -187 -86q-93 -26 -193 -26h-14q-59 1 -163 15.5t-178 28.5zM371 154q148 -48 252 -48q252 0 388 159.5 t136 455.5q0 120 -33 213t-85.5 149t-124.5 91q-73 34 -145 46q-57 9 -119 10q-16 0 -32 -1q-60 -3 -119 -9t-89 -11l-29 -5v-1050z" />
<glyph unicode="E" horiz-adv-x="1130" d="M203 0l2 1335h809v-110h-645v-459h553v-117h-553v-536h665v-113h-831z" />
<glyph unicode="F" horiz-adv-x="1138" d="M203 -14l2 1349h825v-110h-659v-477h567v-117h-567v-631z" />
<glyph unicode="G" horiz-adv-x="1445" d="M100 635q0 168 60 308t159 229.5t223.5 138.5t258.5 49q186 0 434 -117l-51 -129q-8 5 -22 13.5t-59 30.5t-91 39t-111.5 30.5t-126.5 13.5q-230 0 -369 -149.5t-139 -413.5q0 -116 29.5 -213.5t78 -163.5t111 -112.5t128.5 -67.5t132 -21q162 0 334 129v396l164 -19 v-456q-13 -7 -35.5 -19t-88.5 -42t-128 -53t-141.5 -42t-140.5 -19q-129 0 -239 42t-193 122.5t-130 207.5t-47 288z" />
<glyph unicode="H" horiz-adv-x="1368" d="M203 -12v1347l166 15v-564h630v549l164 13v-1348l-164 -12v682h-630v-670z" />
<glyph unicode="I" horiz-adv-x="575" d="M205 -14v1349l166 19v-1354z" />
<glyph unicode="J" horiz-adv-x="575" d="M51 -358q39 62 54.5 88.5t40 79t34 94.5t17.5 107t8 145v1179l166 15v-1223q0 -141 -46.5 -263.5t-183.5 -285.5q-57 35 -90 64z" />
<glyph unicode="K" horiz-adv-x="1290" d="M207 -10v1345l166 15v-1348zM393 754l713 616l108 -102l-628 -523l659 -696l-141 -88z" />
<glyph unicode="L" horiz-adv-x="1040" d="M205 0v1339l164 21v-1247h583v-113h-747z" />
<glyph unicode="M" horiz-adv-x="1751" d="M172 -10l80 1345l246 13l387 -1201l364 1188l228 15l114 -1350l-166 -10l-88 1192l-350 -1182l-211 -12l-379 1179l-69 -1165z" />
<glyph unicode="N" horiz-adv-x="1449" d="M205 -12v1347l237 13l635 -1127h10l-4 1114l164 13l-2 -1348l-198 -12l-670 1188h-17l9 -1176z" />
<glyph unicode="O" horiz-adv-x="1488" d="M102 662q0 150 53.5 281t143.5 221.5t212.5 143t256.5 52.5q97 0 183 -21t166 -70.5t137.5 -124.5t92.5 -190t37 -260v-9q0 -97 -22 -193q-22 -100 -74 -192.5t-127 -163.5t-187 -114.5t-247 -46.5h-18q-279 0 -441 177q-166 183 -166 510zM262 682q0 -126 29 -226.5 t76.5 -165t112.5 -107.5t132 -61t140 -18q100 0 185 36.5t150 106t101 179.5q35 107 35 241v7q-3 267 -126.5 417t-340.5 150q-64 0 -127.5 -16t-131 -56.5t-118.5 -101.5t-84 -160.5t-33 -224.5z" />
<glyph unicode="P" horiz-adv-x="1150" d="M205 -12v1312q211 50 391 50q138 0 245 -41t169 -127q59 -80 59 -189v-14q-3 -84 -34.5 -156t-91.5 -130t-155 -95.5t-217 -48.5q-35 -2 -72 -2q-62 0 -130 6v-553zM369 1204l2 -532q59 -8 151 -8h4q182 0 276 82q96 83 99 229q1 122 -91 191q-85 63 -193 63h-19 q-60 -2 -117.5 -8t-84.5 -11z" />
<glyph unicode="Q" horiz-adv-x="1497" d="M100 662q0 149 54.5 279t146.5 219.5t215 140.5t258 51q97 0 184 -20t168 -68.5t139 -122t93 -188t35 -259.5q0 -377 -217 -555l137 -213l-109 -71l-168 198q-143 -67 -303 -67q-98 0 -187 21.5t-171.5 72.5t-142.5 127t-96 192.5t-36 262.5zM260 682q0 -125 30 -225 t78.5 -162.5t114.5 -104t134 -58.5t141 -17q100 0 185.5 34.5t150.5 102t102 176.5q35 105 35 239v7q-3 266 -127 412.5t-342 146.5q-64 0 -128.5 -15t-133 -54.5t-121 -99.5t-86 -159t-33.5 -223z" />
<glyph unicode="R" horiz-adv-x="1259" d="M203 -12v1315q19 5 53.5 13t137 21t200.5 13h18q126 0 226 -38q108 -42 170 -128q59 -81 59 -191v-14q-5 -148 -97.5 -257t-269.5 -153l490 -530l-141 -86q-347 399 -517 592q-13 -1 -27 -1q-35 0 -73 4q-52 5 -65 5v-553zM367 1204l2 -532q59 -8 151 -8h4q182 0 276 82 q96 83 99 229q1 122 -91 191q-85 63 -193 63h-19q-60 -2 -117.5 -8t-84.5 -11z" />
<glyph unicode="S" horiz-adv-x="1253" d="M129 121l33 104q34 -13 89 -32t188.5 -50.5t222.5 -31.5q90 0 153 42t87 102q18 45 18 92q0 16 -2 32q-10 70 -56 120.5t-111.5 80t-143 54t-153 50.5t-138.5 60.5t-103 94t-43 140.5v14q0 81 32 145q36 70 101 113.5t147 67t179 27.5q22 1 45 1q80 0 160 -11 q104 -14 156 -30l54 -16l-45 -131q-24 9 -65 23q-40 12 -146 32q-84 16 -152 16q-17 0 -34 -1q-154 -10 -220 -73q-54 -51 -55 -134q0 -19 3 -39q6 -40 34.5 -72t72 -54.5t98.5 -41.5t114.5 -38t119.5 -40t114.5 -51t97 -68t70 -94t32.5 -125q1 -10 1 -20q0 -69 -30 -137 q-34 -78 -98 -138q-64 -62 -166 -94q-78 -25 -164 -24q-27 0 -55 2q-63 5 -131.5 20.5t-122 34t-97.5 36.5t-68 30z" />
<glyph unicode="T" horiz-adv-x="1093" d="M20 1225v110h1051v-110h-434v-1221l-164 -16v1237h-453z" />
<glyph unicode="U" horiz-adv-x="1449" d="M193 526v809l163 15v-746q0 -54 1 -84t5 -82.5t13.5 -84t25.5 -74.5t43.5 -68.5t64 -50t89.5 -36t119 -11.5q59 0 107.5 9.5t85 25t65 42t47.5 52.5t32.5 64.5t20.5 70.5t11 77.5t5 79.5t1 82v719l165 15v-697q0 -120 -15.5 -216.5t-53.5 -182.5t-98.5 -143t-155.5 -90 t-219 -33q-104 0 -187 21t-136.5 52.5t-92.5 81t-59 93.5t-31 103.5t-13.5 98t-2.5 88.5z" />
<glyph unicode="V" horiz-adv-x="1232" d="M39 1329l166 19l399 -1209l447 1209l149 -13l-508 -1333l-213 -12z" />
<glyph unicode="W" horiz-adv-x="1859" d="M74 1331l186 17l250 -1198l344 1185l195 15l276 -1182l311 1180l162 -13l-377 -1333l-211 -12l-262 1136l-340 -1124l-213 -12z" />
<glyph unicode="X" horiz-adv-x="1327" d="M94 0l477 686l-458 649l200 13l365 -545l395 545l166 -13l-483 -647l516 -688l-201 -12l-409 579l-390 -579z" />
<glyph unicode="Y" horiz-adv-x="1214" d="M63 1335l201 13l346 -643l361 643l180 -13l-459 -770v-565l-166 -12v575z" />
<glyph unicode="Z" horiz-adv-x="1181" d="M72 113l866 1097h-752v125h908l30 -125l-860 -1097h817v-113h-985z" />
<glyph unicode="[" horiz-adv-x="612" d="M205 -289v1747l362 -24v-86h-221v-1526h221v-86z" />
<glyph unicode="\" horiz-adv-x="866" d="M23 1430l104 36l694 -1529l-98 -37z" />
<glyph unicode="]" horiz-adv-x="612" d="M47 -264l2 86h219v1526h-219l-2 86l363 24v-1747z" />
<glyph unicode="^" horiz-adv-x="1128" d="M139 743l400 576l88 2l403 -573l-88 -68l-358 483l-351 -485z" />
<glyph unicode="_" horiz-adv-x="1085" d="M0 -160h1083v-88h-1083v88z" />
<glyph unicode="`" horiz-adv-x="634" d="M133 1214l68 78l293 -278l-41 -51z" />
<glyph unicode="a" horiz-adv-x="931" d="M80 293l8 145l547 62v71q0 67 -8 107.5t-29.5 62.5t-49 28.5t-75.5 6.5q-57 0 -131 -14t-119 -28l-45 -13l-18 104q197 60 332 60q58 0 102.5 -8t76 -21t53 -37.5t34.5 -50t19.5 -67t8.5 -79t2 -94.5v-526l-118 -16l-35 110q-22 -11 -57.5 -28t-117 -46.5t-128.5 -33.5 q-12 -1 -24 -1q-108 -1 -168 75q-61 77 -60 207v24zM235 241q4 -35 13.5 -64.5t37.5 -50t72 -24.5q67 0 156 34.5t121 60.5v217l-397 -49q-2 -10 -2 -58q-3 -17 -2 -36q-1 -14 1 -30z" />
<glyph unicode="b" horiz-adv-x="1009" d="M154 -12l2 1423l151 12v-649l205 88q79 23 119 23q134 0 217.5 -115t83.5 -301q0 -218 -111 -349.5t-291 -131.5q-68 0 -229 94l-27 -82zM307 188l10.5 -10.5t28.5 -23t44.5 -29t54.5 -22.5q29 -9 57 -9h6q121 0 193.5 105.5t72.5 265.5q0 151 -54 230t-145 79 q-33 0 -73 -12l-195 -82v-492z" />
<glyph unicode="c" horiz-adv-x="901" d="M82 403q0 86 25.5 166.5t73 147t123 111t169.5 53.5q40 4 62 4q71 0 142.5 -20t107.5 -40l36 -20l-43 -96q-15 9 -41.5 22.5t-96.5 36t-126 23.5h-5q-105 0 -179 -80q-76 -82 -84 -246q-1 -22 -1 -43q-1 -148 61 -232q70 -96 183 -96q36 0 109.5 23.5t129.5 46.5l56 24 l31 -75q-8 -5 -22.5 -13.5t-57 -30.5t-83 -39t-94 -30.5t-97.5 -13.5q-54 0 -104.5 11.5t-101.5 41.5t-88.5 76t-61 120t-23.5 168z" />
<glyph unicode="d" horiz-adv-x="1054" d="M82 395q1 138 55 248.5t159 176t245 65.5q44 0 95 -9.5t80 -19.5l29 -10v565l154 12v-1421l-117 -16l-32 106q-20 -11 -53 -27.5t-110 -44.5t-124 -30q-14 -1 -27 -1q-160 0 -254 101q-101 107 -100 298v7zM233 459v-24q-1 -144 65 -240q72 -104 202 -105q51 0 112.5 25 t97.5 50l35 25v562q-13 5 -35 12q-21 6 -76 16q-39 7 -71 7q-14 0 -26 -1q-133 -15 -214 -93.5t-90 -233.5z" />
<glyph unicode="e" horiz-adv-x="944" d="M80 369v22q0 133 45 240q49 116 150 185t239 69q81 0 145 -23t105 -61.5t66.5 -92.5t34.5 -114q6 -42 6 -86q0 -20 -1 -41l-639 -76q5 -137 75 -212t200 -75q35 0 111.5 19t136.5 38l59 19l25 -78q-26 -13 -69 -32t-142.5 -50.5t-161.5 -31.5q-55 0 -105.5 10.5 t-101 37.5t-88.5 68.5t-62.5 109.5t-27.5 155zM233 479q60 7 265.5 38t216.5 34v7q-1 42 -11 78q-12 40 -36 73t-69.5 53t-106.5 20q-244 0 -259 -303z" />
<glyph unicode="f" horiz-adv-x="677" d="M51 780v80h182v123q0 84 49 162t123 125.5t150 52.5q10 1 20 1q31 0 63 -5q44 -6 68 -13l23 -6l-33 -98q-50 17 -118 21q-10 1 -19 1q-80 0 -123 -48q-47 -52 -47 -164v-152h234v-98h-234v-766l-158 -8q2 482 2 776z" />
<glyph unicode="g" horiz-adv-x="1030" d="M112 587q28 91 81.5 160t138.5 107q72 32 160 32q14 0 28 -1q84 -5 211 -76l23 61l123 15v-989q0 -157 -81.5 -247.5t-226.5 -90.5q-61 0 -154.5 23.5t-156.5 46.5l-63 24l28 82q192 -51 305 -51q46 0 78 7t60.5 27t42.5 60t14 102v209q-55 -34 -125 -56t-131 -22 q-190 0 -288 96q-97 95 -97 283q0 104 30 198zM242 461q-1 -18 -1 -35q0 -134 57 -216q64 -93 189 -93q48 0 107 19.5t94 39.5l35 19v495q-2 4 -7 10t-22.5 23t-38 30t-55.5 25t-74 15q-10 1 -21 1q-110 0 -181 -80q-76 -88 -82 -253z" />
<glyph unicode="h" horiz-adv-x="1089" d="M154 -10v1421l151 12v-671q5 3 50 30.5t65.5 38t62.5 29.5t80 27t78 8q117 0 195.5 -77t78.5 -202v-606l-155 -10l-2 598q0 65 -42.5 114.5t-117.5 49.5q-112 0 -295 -103v-651z" />
<glyph unicode="i" horiz-adv-x="458" d="M123 1241q0 43 29.5 72.5t72.5 29.5q41 0 71 -29.5t30 -72.5q0 -41 -30 -71.5t-71 -30.5q-42 0 -72 30t-30 72zM150 -12l2 884l151 13v-885z" />
<glyph unicode="j" horiz-adv-x="464" d="M35 -395q5 6 13 16.5t29 50.5t37 87t29 125t13 165v823l153 11v-721q-1 -86 -5.5 -143t-20 -146t-54 -172.5t-98.5 -159.5zM121 1241q0 42 30 72t72 30q43 0 73 -29.5t30 -72.5q0 -41 -30 -71.5t-73 -30.5q-41 0 -71.5 30.5t-30.5 71.5z" />
<glyph unicode="k" horiz-adv-x="1034" d="M152 -12l2 1423l151 12v-1423zM319 498l549 405l76 -119l-450 -286l477 -441l-133 -100z" />
<glyph unicode="l" horiz-adv-x="458" d="M154 -14l2 1425l151 12v-1423z" />
<glyph unicode="m" horiz-adv-x="1591" d="M152 -12l2 884l110 13l41 -150q181 103 252 129q67 23 113 23q79 0 130 -46.5t64 -115.5q49 35 127.5 80t130.5 63q56 17 99 17q98 0 162.5 -66.5t64.5 -193.5v-625l-156 -12q2 586 2 594q0 178 -118 178q-37 0 -68 -10q-82 -23 -236 -127v-623l-153 -12v616 q0 156 -113 156q-33 0 -67 -10q-74 -19 -234 -117v-633z" />
<glyph unicode="n" horiz-adv-x="1044" d="M152 -12l2 880l112 17l39 -135q11 7 41 26t43 27t37 22.5t38 22t31 14.5t29 10q54 13 97 13q119 0 198.5 -70t79.5 -184v-631l-156 -12v641q0 64 -45 102.5t-112 38.5q-39 0 -68 -10q-19 -6 -39 -14.5t-46 -23t-40 -23t-47 -29t-41 -25.5v-645z" />
<glyph unicode="o" horiz-adv-x="1062" d="M82 440q4 108 46.5 195.5t108.5 139.5t139.5 80.5t147.5 31.5q16 1 31 1q193 0 305 -105q120 -113 121 -328q0 -213 -129 -342.5t-332 -135.5h-19q-197 -1 -309 119q-111 119 -110 323v21zM240 438q0 -171 76.5 -261.5t209.5 -90.5q136 0 217.5 93t81.5 270 q0 160 -78.5 244.5t-218.5 84.5q-50 0 -97.5 -18t-92 -55.5t-71.5 -106.5t-27 -160z" />
<glyph unicode="p" horiz-adv-x="1042" d="M152 -451v1233q29 12 76.5 29t158 45.5t178.5 28.5q191 0 293.5 -105.5t102.5 -298.5q0 -72 -16 -141.5t-50.5 -133t-83.5 -111.5t-120 -76.5t-154 -28.5q-84 0 -232 76v-506zM305 174l37 -17q37 -17 59.5 -26t59.5 -18q30 -7 55 -7h10q130 9 201 86t78 234q1 15 1 30 q0 134 -64 225q-72 101 -203 101q-48 0 -106.5 -15t-92.5 -29l-35 -15v-549z" />
<glyph unicode="q" horiz-adv-x="1060" d="M84 393v10q0 138 56 251q58 116 171 180q92 52 204 52q26 0 54 -3q87 -8 187 -68l18 53l131 17v-1315l-155 -14l2 524q-139 -86 -242 -92h-24q-186 0 -289 100q-110 108 -113 305zM238 459v-24q0 -141 65 -235q71 -101 201 -102q52 0 113.5 24t96.5 48l36 23v489 q-2 3 -6 8.5t-21 20t-38.5 26.5t-60 24t-83.5 17q-21 3 -41 3q-102 0 -172 -73q-83 -87 -90 -249z" />
<glyph unicode="r" horiz-adv-x="792" d="M152 -12l2 884l151 15v-316q24 53 60.5 102t91 98t133 82t170.5 42q0 -17 -4.5 -82.5t-7.5 -79.5q-24 -1 -54.5 -5t-74.5 -16.5t-85.5 -31t-83.5 -52t-73.5 -76t-51.5 -105.5t-20 -138v-309z" />
<glyph unicode="s" horiz-adv-x="845" d="M96 45l25 100q188 -43 305 -43q177 0 184 140q1 26 -9 46t-22.5 32.5t-46 26.5t-54.5 20.5t-72 21.5q-44 12 -79 25t-79 35t-73 47q-29 24 -49 62q-22 39 -22 84q0 122 86 181q86 60 242 62h13q63 -1 133 -9q76 -10 118 -18l41 -10l-18 -98q-177 30 -273 30 q-33 0 -62.5 -5t-59.5 -17t-47 -40q-15 -25 -15 -59v-8q5 -90 178 -137q134 -34 184 -58q142 -67 142 -204q0 -82 -48 -144t-118.5 -91t-150.5 -29q-84 0 -172.5 14t-134.5 28z" />
<glyph unicode="t" horiz-adv-x="737" d="M41 848l164 12v305l153 15v-320h291v-88h-291v-674h324v-80q-268 -20 -338 -30q-58 0 -98.5 38.5t-40.5 86.5v659l-162 2z" />
<glyph unicode="u" horiz-adv-x="1050" d="M145 295v577l154 11v-598q0 -91 43 -146t115 -55q45 0 90 18.5t113.5 63t80.5 51.5l2 655l152 11v-889l-119 -14l-35 145q-136 -91 -197 -118q-44 -20 -77 -25q-23 -3 -46 -3q-37 1 -72 9q-57 14 -103 50.5t-73.5 103t-27.5 153.5z" />
<glyph unicode="v" horiz-adv-x="933" d="M43 864l150 21l253 -754h15l299 764l143 -35l-373 -860l-176 -12z" />
<glyph unicode="w" horiz-adv-x="1304" d="M43 864l152 21l163 -770h15l207 745l188 14l143 -757h13l209 770l133 -27l-258 -860l-195 -12l-147 753l-205 -741l-197 -12z" />
<glyph unicode="x" horiz-adv-x="1026" d="M78 27l364 424l-329 383l133 71l282 -375l287 375l131 -51l-348 -403l346 -416l-129 -68l-295 406l-315 -410z" />
<glyph unicode="y" horiz-adv-x="968" d="M70 866l151 21l242 -752l319 752l136 -37l-543 -1292l-144 24l209 498h-104z" />
<glyph unicode="z" horiz-adv-x="894" d="M92 106l549 668h-506v96h643l29 -106l-543 -653h547l-12 -111h-682z" />
<glyph unicode="{" horiz-adv-x="675" d="M82 567q-6 37 0 70q186 0 186 141q0 62 -23.5 157t-23.5 165q0 74 22.5 133t59 94.5t80 61t87 36.5t80 17t58.5 6h23l-10 -86q-5 0 -14.5 0.5t-36.5 -2.5t-52 -9.5t-55 -22.5t-51.5 -40t-36.5 -64t-15 -91q0 -49 20.5 -178.5t20.5 -176.5q0 -38 -18.5 -69t-45 -48.5 t-53 -30t-44.5 -16.5l-19 -4q7 -1 19.5 -4t43.5 -16.5t54.5 -31.5t43 -51t19.5 -73q0 -47 -24.5 -191t-24.5 -204q0 -54 15.5 -97t39.5 -67.5t53.5 -42t59.5 -24t54 -9.5t40 -3l15 1l6 -94q-9 0 -24 0.5t-59 7t-84 18.5t-88.5 40t-83.5 66.5t-59 102.5t-24 144 q0 74 27.5 173.5t27.5 164.5q0 39 -12 67t-29.5 43t-44.5 24t-49 11t-51 2z" />
<glyph unicode="|" horiz-adv-x="1071" d="M479 -532v2074h109v-2074h-109z" />
<glyph unicode="}" horiz-adv-x="675" d="M31 -297l8 94q6 0 15.5 -0.5t38 2t54.5 9.5t57.5 24.5t54.5 42t38.5 67.5t15.5 97q0 60 -24.5 204t-24.5 191q0 40 18.5 73t45 51t53 30.5t45.5 17.5l18 4q-4 1 -10.5 2.5t-25 7.5t-35.5 13.5t-38 21.5t-36 30.5t-25 40.5t-10 52q0 47 20.5 176.5t20.5 178.5 q0 51 -14.5 91t-37.5 63.5t-50.5 40t-55 23t-50.5 9.5t-37 2h-15l-8 86h23.5t57 -6t81 -17t86 -36.5t81 -61t57 -94.5t23.5 -133q0 -70 -24.5 -165t-24.5 -157q0 -141 189 -141q3 -15 3 -32.5t-1 -27.5l-2 -10q-29 0 -51 -2t-49.5 -11t-45.5 -24t-30.5 -43t-12.5 -67 q0 -65 28 -164.5t28 -173.5q0 -80 -23.5 -144t-60.5 -102.5t-82 -66.5t-90 -40t-82 -19t-61 -7h-23z" />
<glyph unicode="~" horiz-adv-x="1105" d="M133 354q1 10 4 27.5t19.5 62t40.5 78.5t71.5 62t108.5 28q51 0 95 -14.5t74.5 -35t59 -41.5t62 -35.5t69.5 -14.5q38 0 66.5 14t41.5 34.5t20 40.5t8 34l1 14h105q0 -5 -1 -14.5t-5.5 -36.5t-12 -51.5t-23.5 -54.5t-37 -51.5t-54 -36.5t-74 -15q-55 0 -102 14.5 t-79.5 35t-63 40.5t-67.5 34.5t-77 14.5q-34 0 -62 -13.5t-43.5 -33.5t-26.5 -39.5t-15 -32.5l-3 -14h-100z" />
<glyph unicode="&#xa1;" horiz-adv-x="587" d="M182 778q0 43 34 74t81 31t81 -31t34 -74q0 -44 -34 -75t-81 -31t-81 31t-34 75zM190 -475l41 1030l107 8l39 -1024z" />
<glyph unicode="&#xa2;" horiz-adv-x="1101" d="M150 639q0 22 4 80q16 149 126 257t291 128v207l121 16v-219q70 -4 140.5 -20t105.5 -30l35 -14l-33 -94q-14 7 -37.5 17t-89 27t-121.5 18v-666q48 13 108.5 32.5t97.5 32.5l36 13l35 -76q-136 -77 -277 -110v-234l-121 -18v235q-60 0 -116 12t-112.5 42t-98 75.5 t-68 120t-26.5 168.5zM313 700q-11 -173 62 -268.5t196 -101.5v684q-109 -11 -179 -88t-79 -226z" />
<glyph unicode="&#xa3;" horiz-adv-x="1140" d="M29 0v111h166q6 3 15 10.5t33 35.5t42.5 63.5t33.5 98.5t15 136q0 75 -6 133h-242v94h233q-3 26 -10.5 73.5t-11 75.5t-7 72t-3.5 88q0 149 139 256.5t346 104.5q57 -1 109.5 -13t76.5 -24l23 -12l-27 -103q-9 6 -26.5 15.5t-73 25t-113.5 14.5q-37 -1 -71.5 -6.5 t-79 -23.5t-77 -47t-55 -82t-22.5 -123q0 -37 3 -78.5t6 -67t9.5 -75t8.5 -70.5h381v-94h-373q6 -65 6 -139q0 -66 -15 -125t-36.5 -96.5t-42.5 -65t-36 -39.5l-15 -12h684l-25 -111h-962z" />
<glyph unicode="&#xa5;" horiz-adv-x="1226" d="M133 1331l170 17l377 -631l354 633l164 -17l-438 -735v-2h346v-90h-346v-113h346v-90h-346v-303l-166 -12v315h-346v90h346v113h-346v90h346z" />
<glyph unicode="&#xa6;" horiz-adv-x="1069" d="M487 360h105v-722h-105v722zM487 672v725h105v-725h-105z" />
<glyph unicode="&#xa7;" horiz-adv-x="913" d="M86 623q-2 157 137 270q-57 76 -63 166q-9 134 81 218.5t251 84.5q53 0 104.5 -13t87.5 -31t64 -36.5t42 -31.5l13 -13l-62 -74q-4 4 -12 11t-33.5 24.5t-53 30.5t-68 24t-80.5 11t-77 -10.5t-69 -31.5t-50 -58.5t-15 -86.5q3 -50 33.5 -95.5t76 -82t100.5 -73.5 t110.5 -79t102 -89t77.5 -112.5t36 -142.5q4 -66 -22 -125t-53.5 -87.5t-57.5 -49.5q73 -83 76 -180q3 -134 -91 -218.5t-255 -84.5q-47 0 -95 12.5t-83 30t-63.5 35.5t-42.5 30l-15 13l49 76q5 -4 14 -10t37 -22t56.5 -28.5t67.5 -22.5t75 -10t69.5 10t62.5 30.5t46 57.5 t16 85q-1 49 -30 93.5t-74.5 81.5t-100.5 74.5t-110.5 80t-101.5 91t-75.5 114.5t-31.5 143zM221 621q3 -52 30 -100t74 -89.5t94.5 -75.5t109.5 -77.5t100 -77.5q66 72 59 202q-2 50 -30 96.5t-75.5 88t-96.5 77.5t-110 82t-100 84q-66 -72 -55 -210z" />
<glyph unicode="&#xa8;" horiz-adv-x="677" d="M80 1110q0 37 26 63.5t64 26.5q37 0 63.5 -26.5t26.5 -63.5q0 -38 -26.5 -64t-63.5 -26q-38 0 -64 26t-26 64zM420 1110q0 37 26 63.5t64 26.5q37 0 63.5 -26.5t26.5 -63.5q0 -38 -26.5 -64t-63.5 -26q-38 0 -64 26t-26 64z" />
<glyph unicode="&#xa9;" horiz-adv-x="1646" d="M109 670q0 188 95.5 347.5t259.5 252t357 92.5q146 0 278 -54.5t228 -147.5t152.5 -221t56.5 -269t-56.5 -269.5t-152.5 -222t-228.5 -148.5t-277.5 -55t-276.5 55t-227 148.5t-152 222t-56.5 269.5zM213 670q0 -164 81.5 -303.5t221.5 -220t305 -80.5q124 0 236.5 48 t194 128.5t130 192.5t48.5 235t-48.5 235t-130 192.5t-194 128.5t-236.5 48q-165 0 -305 -80.5t-221.5 -220t-81.5 -303.5zM457 655q0 22 4 72q13 138 103 237t237 113q74 8 150.5 -6.5t116.5 -32.5l40 -18l-33 -82q-133 55 -250 57q-99 2 -165 -66.5t-74 -217.5 q-9 -163 53.5 -249.5t165.5 -86.5q32 0 100 21t120 42l52 21l27 -68q-7 -5 -20 -12.5t-50.5 -27.5t-73.5 -35t-83.5 -27.5t-85.5 -12.5q-59 0 -114 18.5t-106.5 59.5t-82.5 118.5t-31 182.5z" />
<glyph unicode="&#xaa;" horiz-adv-x="788" d="M74 895l6 109l401 45v28q0 104 -40 138.5t-154 25.5q-63 -3 -154 -20l-8 98q53 7 170 16q146 11 228.5 -38t82.5 -167v-456l-90 -12l-35 83q-139 -75 -221 -81q-94 -7 -142.5 56t-43.5 175zM201 883q-6 -66 14 -92.5t64 -26.5t109.5 27.5t92.5 46.5v131l-278 -39 q-2 -41 -2 -47z" />
<glyph unicode="&#xab;" horiz-adv-x="880" d="M80 422v53l313 322l74 -64l-225 -284l229 -293l-84 -62zM424 422v53l313 322l74 -64l-225 -284l229 -293l-82 -62z" />
<glyph unicode="&#xac;" horiz-adv-x="1140" d="M125 459l4 100h868v-467l-116 -12v379h-756z" />
<glyph unicode="&#xad;" horiz-adv-x="659" d="M57 438v109h541v-109h-541z" />
<glyph unicode="&#xae;" horiz-adv-x="1019" d="M115 975q0 160 115.5 273.5t279.5 113.5t279.5 -113.5t115.5 -273.5t-115.5 -272.5t-279.5 -112.5t-279.5 112.5t-115.5 272.5zM176 975q0 -137 98 -234.5t236 -97.5t236 97.5t98 234.5q0 138 -98 236t-236 98t-236 -98t-98 -236zM367 776v406q83 12 161 14q69 2 113 -29 t41 -86q-1 -44 -36.5 -80t-80.5 -45l135 -149l-77 -41l-125 180q-16 0 -30 1t-17 1v-170zM451 989q20 -2 43 -2q46 0 70 22.5t24 61.5q0 33 -23 51.5t-53 18.5l-61 -6v-146z" />
<glyph unicode="&#xaf;" horiz-adv-x="657" d="M106 1032v86h439v-86h-439z" />
<glyph unicode="&#xb0;" horiz-adv-x="632" d="M94 1155q0 83 65.5 143t157.5 60t157 -59.5t65 -143.5q0 -85 -65 -144t-157 -59t-157.5 59t-65.5 144zM197 1155q0 -56 34.5 -94.5t85.5 -38.5q50 0 85.5 39t35.5 94t-35.5 93t-85.5 38q-51 0 -85.5 -37.5t-34.5 -93.5z" />
<glyph unicode="&#xb1;" horiz-adv-x="1101" d="M127 193l4 98h858l-6 -98h-856zM127 727l4 98h367v326l118 4v-330h373l-6 -98h-367v-309l-118 -6v315h-371z" />
<glyph unicode="&#xb2;" horiz-adv-x="563" d="M25 1413q4 5 11.5 14t32.5 32t52 41.5t69.5 34.5t85.5 19q119 9 186.5 -46t67.5 -146q0 -49 -27.5 -98t-79.5 -95t-98 -78t-112 -73q77 0 189 1t137 1l-13 -105h-481l-14 86q15 9 39.5 24.5t86.5 60.5t110 86.5t87 92t39 87.5q0 46 -33 71.5t-88 18.5q-89 -8 -159 -94z " />
<glyph unicode="&#xb3;" horiz-adv-x="563" d="M78 946l28 88q79 -16 142 -20q71 -6 111.5 18.5t33.5 85.5q-6 51 -36.5 66t-137.5 16h-35l2 96q31 -1 63.5 3.5t67 15.5t53.5 35.5t13 58.5q-6 32 -28.5 45.5t-73.5 13.5q-32 0 -74.5 -7.5t-68.5 -14.5l-27 -8l-29 82q121 38 240 41q84 2 143.5 -35.5t54.5 -120.5 q-3 -59 -45 -98.5t-115 -46.5q81 -1 128 -47t44 -113q-4 -106 -76 -153.5t-192 -39.5q-42 3 -88.5 12.5t-71.5 18.5z" />
<glyph unicode="&#xb4;" horiz-adv-x="634" d="M152 1010l290 274l80 -70l-319 -249z" />
<glyph unicode="&#xb5;" horiz-adv-x="1175" d="M197 -442l6 1302l153 14v-583q0 -89 44 -144t116 -55q42 0 100 25q40 19 83 44.5t79 49t43 27.5l2 622l154 14v-874l-123 -12l-33 159q-199 -143 -299 -159q-96 -12 -182 71l10 -481z" />
<glyph unicode="&#xb6;" horiz-adv-x="1153" d="M72 911q0 79 24 144.5t67 112t99.5 80.5t126 54t140.5 29.5t149 9.5q116 0 216 -2t142 -4l41 -2l-14 -110h-113v-1448l-123 -11v1459h-153v-1452l-129 -11v711q-100 0 -182 23.5t-149 73t-104.5 137t-37.5 206.5z" />
<glyph unicode="&#xb7;" horiz-adv-x="505" d="M139 530q0 47 34 81t81 34q49 0 83 -33.5t34 -81.5q0 -49 -33.5 -82.5t-83.5 -33.5q-48 0 -81.5 33.5t-33.5 82.5z" />
<glyph unicode="&#xb8;" horiz-adv-x="614" d="M264 -367q7 0 18 1.5t39.5 7.5t50.5 14.5t40 26.5t18 41q0 36 -32 57t-64 23l-33 3l-14 50l159 145h99l-133 -137q5 0 14 -2t31 -10.5t39 -22.5t31 -41t14 -63q0 -39 -27.5 -70t-66.5 -47t-78.5 -26.5t-66.5 -13.5l-28 -3z" />
<glyph unicode="&#xb9;" horiz-adv-x="430" d="M16 1468l306 103v-656h-129v510l-152 -32z" />
<glyph unicode="&#xba;" horiz-adv-x="839" d="M84 1030q3 83 35.5 150t82.5 107t105.5 61.5t108.5 21.5q158 0 250 -85t92 -245q0 -162 -98.5 -263t-245.5 -101q-149 0 -241.5 96.5t-88.5 257.5zM225 1028q0 -128 53 -196t140 -68q88 0 144 70t56 202q0 119 -54 182.5t-144 63.5q-32 0 -64 -13.5t-62.5 -41.5 t-49.5 -80t-19 -119z" />
<glyph unicode="&#xbb;" horiz-adv-x="880" d="M80 156l229 293l-225 284l74 64l311 -322v-53l-307 -328zM418 156l229 293l-225 284l74 64l311 -322v-53l-307 -328z" />
<glyph unicode="&#xbc;" horiz-adv-x="1593" d="M147 1231l340 112v-657h-129v512l-184 -43zM381 -8l764 1372l94 -43l-774 -1376zM874 240l357 432l129 -10v-414h135l-14 -80h-121v-168l-125 -12v180h-322zM987 248h248v301z" />
<glyph unicode="&#xbd;" horiz-adv-x="1589" d="M147 1231l340 112v-657h-129v512l-184 -43zM369 -8l766 1372l92 -43l-774 -1376zM936 498q4 5 11.5 14t33.5 32t53.5 41.5t70 34.5t85.5 19q119 9 186.5 -46.5t67.5 -146.5q0 -40 -20.5 -81.5t-49.5 -74t-76.5 -70t-83 -61.5t-88.5 -57q77 0 189 1t137 1l-12 -104h-482 l-14 86q15 9 39 24.5t86.5 60.5t110 86t86.5 91.5t39 87.5q0 48 -32 72.5t-87 17.5q-90 -7 -160 -94z" />
<glyph unicode="&#xbe;" horiz-adv-x="1570" d="M135 739l35 90q123 -22 186 -28q74 -7 120.5 19t39.5 85q-6 49 -50 65.5t-157 18.5l-33 -2v90q21 2 62 2q77 0 126 35.5t40 81.5q-9 66 -113 66q-28 0 -80.5 -11t-91.5 -21l-39 -11l-30 81q129 46 282 48q39 1 75 -7t69 -24.5t51.5 -49t15.5 -75.5q-3 -56 -54.5 -95.5 t-137.5 -49.5q110 -1 158 -45t46 -115q-3 -104 -81 -151.5t-199 -41.5q-53 3 -113 14t-94 21zM389 -8l764 1372l94 -43l-774 -1376zM852 240l356 432l129 -10v-414h136l-15 -80h-121v-168l-104 -12v180h-344zM965 248h268v315z" />
<glyph unicode="&#xbf;" horiz-adv-x="892" d="M82 -158q0 64 29 126.5t73 108.5t94.5 88.5t94.5 70.5t73 49.5t29 29.5q0 17 -11.5 64t-22.5 85l-11 38l96 33q2 -3 4.5 -8t11 -21t16.5 -31.5t18 -37.5t18 -41t15 -40t10 -37t1.5 -28.5t-8.5 -18.5q-9 -7 -48.5 -33.5t-76 -52t-82.5 -66.5t-80 -81t-57.5 -91.5 t-23.5 -101.5q0 -41 12.5 -81t38 -77.5t74 -61t112.5 -23.5q72 0 160 27t152 71l49 -113q-201 -103 -424 -92q-49 2 -96.5 17t-91 44t-76.5 69t-52.5 95.5t-19.5 120.5zM367 770q0 44 34.5 75.5t81.5 31.5q49 0 84 -31.5t35 -75.5t-34.5 -75t-84.5 -31q-48 0 -82 31t-34 75z " />
<glyph unicode="&#xc0;" horiz-adv-x="1259" d="M35 -2l520 1335l201 15l473 -1348l-170 -12l-135 389h-566l-151 -389zM406 494h477l-228 702zM449 1679l67 78l293 -278l-41 -52z" />
<glyph unicode="&#xc1;" horiz-adv-x="1259" d="M35 -2l520 1335l201 15l473 -1348l-170 -12l-135 389h-566l-151 -389zM406 494h477l-228 702zM444 1475l291 274l80 -70l-319 -249z" />
<glyph unicode="&#xc2;" horiz-adv-x="1259" d="M35 -2l520 1335l201 15l473 -1348l-170 -12l-135 389h-566l-151 -389zM362 1466l230 250h70l233 -248l-55 -49l-213 193l-213 -185zM406 494h477l-228 702z" />
<glyph unicode="&#xc3;" horiz-adv-x="1259" d="M35 -2l520 1335l201 15l473 -1348l-170 -12l-135 389h-566l-151 -389zM358 1475q4 93 46.5 141.5t107.5 48.5q39 0 74.5 -19t57.5 -41.5t52 -41.5t60 -19t48 22.5t25 92.5l72 -4q0 -90 -34 -145.5t-105 -55.5q-34 0 -72.5 18.5t-66.5 41t-60.5 41t-56.5 18.5 q-33 0 -52.5 -26.5t-22.5 -52.5l-3 -26zM406 494h477l-228 702z" />
<glyph unicode="&#xc4;" horiz-adv-x="1259" d="M35 -2l520 1335l201 15l473 -1348l-170 -12l-135 389h-566l-151 -389zM369 1575q0 37 26 63.5t64 26.5q37 0 63.5 -26.5t26.5 -63.5q0 -38 -26.5 -64t-63.5 -26q-38 0 -64 26t-26 64zM406 494h477l-228 702zM709 1575q0 37 26 63.5t64 26.5q37 0 63.5 -26.5t26.5 -63.5 q0 -38 -26.5 -64t-63.5 -26q-38 0 -64 26t-26 64z" />
<glyph unicode="&#xc5;" horiz-adv-x="1259" d="M35 -2l520 1335l201 15l473 -1348l-170 -12l-135 389h-566l-151 -389zM406 494h477l-228 702zM424 1616q0 73 60 124.5t145 51.5q86 0 146.5 -51.5t60.5 -124.5q0 -72 -60.5 -123t-146.5 -51q-85 0 -145 51t-60 123zM518 1618q0 -44 32.5 -75.5t78.5 -31.5t79 31.5 t33 75.5q0 43 -33 74.5t-79 31.5t-78.5 -31.5t-32.5 -74.5z" />
<glyph unicode="&#xc6;" horiz-adv-x="1875" d="M12 0l832 1333l895 2v-110h-643v-459h551v-117h-551v-536h669v-113h-835v541h-410l-336 -553zM592 659h338v553z" />
<glyph unicode="&#xc7;" horiz-adv-x="1271" d="M104 633q0 134 38 251t100.5 199t143.5 142t166.5 90t170.5 33q72 3 156.5 -13t146 -35.5t160.5 -56.5l-45 -117q-31 11 -80.5 27.5t-159.5 44t-170 27.5q-86 0 -166.5 -36t-145 -103t-104.5 -172.5t-43 -233.5q-2 -133 38 -242.5t105.5 -176t142.5 -102.5t155 -38 q60 -1 126.5 11t119 30.5t96 37t67.5 31.5l23 13l55 -101q-11 -6 -31 -16t-79 -36t-116 -46.5t-133 -37.5t-139 -19q-125 -5 -233 34.5t-189.5 118.5t-128.5 205.5t-47 286.5zM496 -367q7 0 18 1.5t39.5 7.5t50.5 14.5t40 26.5t18 41q0 36 -32.5 57t-65.5 23l-32 3l-14 50 l160 145h98l-133 -137q5 0 14 -2t31 -10.5t39 -22.5t31 -41t14 -63q0 -39 -27.5 -70t-66.5 -47t-78 -26.5t-66 -13.5l-28 -3z" />
<glyph unicode="&#xc8;" horiz-adv-x="1130" d="M203 0l2 1335h809v-110h-645v-459h553v-117h-553v-536h665v-113h-831zM385 1679l68 78l292 -278l-40 -52z" />
<glyph unicode="&#xc9;" horiz-adv-x="1130" d="M203 0l2 1335h809v-110h-645v-459h553v-117h-553v-536h665v-113h-831zM379 1475l291 274l80 -70l-320 -249z" />
<glyph unicode="&#xca;" horiz-adv-x="1130" d="M203 0l2 1335h809v-110h-645v-459h553v-117h-553v-536h665v-113h-831zM299 1466l229 250h70l233 -248l-55 -49l-213 193l-213 -185z" />
<glyph unicode="&#xcb;" horiz-adv-x="1130" d="M203 0l2 1335h809v-110h-645v-459h553v-117h-553v-536h665v-113h-831zM305 1575q0 37 26 63.5t64 26.5q37 0 63.5 -26.5t26.5 -63.5q0 -38 -26.5 -64t-63.5 -26q-38 0 -64 26t-26 64zM645 1575q0 37 26 63.5t64 26.5q37 0 63.5 -26.5t26.5 -63.5q0 -38 -26.5 -64 t-63.5 -26q-38 0 -64 26t-26 64z" />
<glyph unicode="&#xcc;" horiz-adv-x="575" d="M109 1679l67 78l293 -278l-41 -52zM205 -14v1349l166 19v-1354z" />
<glyph unicode="&#xcd;" horiz-adv-x="575" d="M102 1475l291 274l80 -70l-319 -249zM205 -14v1349l166 19v-1354z" />
<glyph unicode="&#xce;" horiz-adv-x="575" d="M23 1466l229 250h70l233 -248l-55 -49l-213 193l-213 -185zM205 -14v1349l166 19v-1354z" />
<glyph unicode="&#xcf;" horiz-adv-x="575" d="M29 1575q0 37 26 63.5t64 26.5q37 0 63.5 -26.5t26.5 -63.5q0 -38 -26.5 -64t-63.5 -26q-38 0 -64 26t-26 64zM205 -14v1349l166 19v-1354zM369 1575q0 37 26 63.5t64 26.5q37 0 63.5 -26.5t26.5 -63.5q0 -38 -26.5 -64t-63.5 -26q-38 0 -64 26t-26 64z" />
<glyph unicode="&#xd0;" horiz-adv-x="1521" d="M119 621v94h194v588q250 47 473 47q100 -1 186 -18.5t170 -61.5t143 -112t95.5 -178t36.5 -253q0 -148 -38 -271.5t-103 -209.5t-153 -145.5t-187.5 -87t-206.5 -25.5q-59 1 -163 15.5t-178 28.5l-75 15v574h-194zM477 154q150 -48 254 -48q252 0 388 159.5t136 455.5 q0 112 -32.5 202t-86 147.5t-124.5 95t-144.5 52t-150.5 11.5q-60 -3 -120 -9t-90 -11l-30 -5v-489h389v-94h-389v-467z" />
<glyph unicode="&#xd1;" horiz-adv-x="1449" d="M205 -12v1347l237 13l635 -1127h10l-4 1114l164 13l-2 -1348l-198 -12l-670 1188h-17l9 -1176zM453 1475q4 93 46 141.5t107 48.5q39 0 74.5 -19t57.5 -41.5t52 -41.5t60 -19t48.5 23t25.5 92l71 -4q0 -90 -34 -145.5t-105 -55.5q-34 0 -72.5 18.5t-66.5 41t-60.5 41 t-56.5 18.5q-33 0 -52.5 -26.5t-22.5 -52.5l-3 -26z" />
<glyph unicode="&#xd2;" horiz-adv-x="1488" d="M102 662q0 150 53.5 281t143.5 221.5t212.5 143t256.5 52.5q97 0 183 -21t166 -70.5t137.5 -124.5t92.5 -190t37 -260q1 -103 -21.5 -202.5t-74.5 -192t-127 -163.5t-187 -114.5t-247 -46.5q-292 -6 -458.5 177t-166.5 510zM262 682q0 -126 29 -226.5t76.5 -165 t112.5 -107.5t132 -61t140 -18q100 0 185 36.5t150 106t101 179.5t35 248q-3 267 -126.5 417t-340.5 150q-64 0 -127.5 -16t-131 -56.5t-118.5 -101.5t-84 -160.5t-33 -224.5zM563 1679l68 78l293 -278l-41 -52z" />
<glyph unicode="&#xd3;" horiz-adv-x="1488" d="M102 662q0 150 53.5 281t143.5 221.5t212.5 143t256.5 52.5q97 0 183 -21t166 -70.5t137.5 -124.5t92.5 -190t37 -260q1 -103 -21.5 -202.5t-74.5 -192t-127 -163.5t-187 -114.5t-247 -46.5q-292 -6 -458.5 177t-166.5 510zM262 682q0 -126 29 -226.5t76.5 -165 t112.5 -107.5t132 -61t140 -18q100 0 185 36.5t150 106t101 179.5t35 248q-3 267 -126.5 417t-340.5 150q-64 0 -127.5 -16t-131 -56.5t-118.5 -101.5t-84 -160.5t-33 -224.5zM559 1475l291 274l80 -70l-320 -249z" />
<glyph unicode="&#xd4;" horiz-adv-x="1488" d="M102 662q0 150 53.5 281t143.5 221.5t212.5 143t256.5 52.5q97 0 183 -21t166 -70.5t137.5 -124.5t92.5 -190t37 -260q1 -103 -21.5 -202.5t-74.5 -192t-127 -163.5t-187 -114.5t-247 -46.5q-292 -6 -458.5 177t-166.5 510zM262 682q0 -126 29 -226.5t76.5 -165 t112.5 -107.5t132 -61t140 -18q100 0 185 36.5t150 106t101 179.5t35 248q-3 267 -126.5 417t-340.5 150q-64 0 -127.5 -16t-131 -56.5t-118.5 -101.5t-84 -160.5t-33 -224.5zM477 1466l230 250h69l234 -248l-56 -49l-213 193l-213 -185z" />
<glyph unicode="&#xd5;" horiz-adv-x="1488" d="M102 662q0 150 53.5 281t143.5 221.5t212.5 143t256.5 52.5q97 0 183 -21t166 -70.5t137.5 -124.5t92.5 -190t37 -260q1 -103 -21.5 -202.5t-74.5 -192t-127 -163.5t-187 -114.5t-247 -46.5q-292 -6 -458.5 177t-166.5 510zM262 682q0 -126 29 -226.5t76.5 -165 t112.5 -107.5t132 -61t140 -18q100 0 185 36.5t150 106t101 179.5t35 248q-3 267 -126.5 417t-340.5 150q-64 0 -127.5 -16t-131 -56.5t-118.5 -101.5t-84 -160.5t-33 -224.5zM473 1475q4 93 46.5 141.5t107.5 48.5q39 0 74.5 -19t57.5 -41.5t51.5 -41.5t59.5 -19t48.5 23 t25.5 92l72 -4q0 -90 -34 -145.5t-105 -55.5q-34 0 -72.5 18.5t-66.5 41t-60.5 41t-56.5 18.5q-33 0 -52.5 -26.5t-22.5 -52.5l-3 -26z" />
<glyph unicode="&#xd6;" horiz-adv-x="1488" d="M102 662q0 150 53.5 281t143.5 221.5t212.5 143t256.5 52.5q97 0 183 -21t166 -70.5t137.5 -124.5t92.5 -190t37 -260q1 -103 -21.5 -202.5t-74.5 -192t-127 -163.5t-187 -114.5t-247 -46.5q-292 -6 -458.5 177t-166.5 510zM262 682q0 -126 29 -226.5t76.5 -165 t112.5 -107.5t132 -61t140 -18q100 0 185 36.5t150 106t101 179.5t35 248q-3 267 -126.5 417t-340.5 150q-64 0 -127.5 -16t-131 -56.5t-118.5 -101.5t-84 -160.5t-33 -224.5zM483 1575q0 37 26 63.5t64 26.5q37 0 64 -26.5t27 -63.5q0 -38 -27 -64t-64 -26q-38 0 -64 26 t-26 64zM823 1575q0 37 26 63.5t64 26.5q37 0 64 -26.5t27 -63.5q0 -38 -27 -64t-64 -26q-38 0 -64 26t-26 64z" />
<glyph unicode="&#xd7;" horiz-adv-x="1077" d="M129 346l338 330l-322 307l84 88l320 -315l321 313l82 -82l-321 -309l340 -332l-78 -78l-346 330l-344 -332z" />
<glyph unicode="&#xd8;" horiz-adv-x="1603" d="M115 -4l164 182q-154 180 -154 486q0 200 95.5 360t255.5 247t351 87q240 0 404 -111l133 148l80 -68l-133 -147q164 -168 170 -484q1 -104 -23.5 -203t-79 -191t-134.5 -161.5t-198.5 -112.5t-261.5 -46q-271 -3 -438 129l-164 -181zM293 684q0 -233 100 -377l737 828 q-122 104 -315 104q-68 0 -135 -15.5t-138.5 -55t-125.5 -100t-88.5 -160t-34.5 -224.5zM459 236q134 -123 352 -123q105 0 195 35t159 102.5t107 176.5t37 249q-3 236 -109 383z" />
<glyph unicode="&#xd9;" horiz-adv-x="1449" d="M193 526v809l163 15v-746q0 -54 1 -84t5 -82.5t13.5 -84t25.5 -74.5t43.5 -68.5t64 -50t89.5 -36t119 -11.5q59 0 107.5 9.5t85 25t65 42t47.5 52.5t32.5 64.5t20.5 70.5t11 77.5t5 79.5t1 82v719l165 15v-697q0 -120 -15.5 -216.5t-53.5 -182.5t-98.5 -143t-155.5 -90 t-219 -33q-104 0 -187 21t-136.5 52.5t-92.5 81t-59 93.5t-31 103.5t-13.5 98t-2.5 88.5zM545 1679l67 78l293 -278l-41 -52z" />
<glyph unicode="&#xda;" horiz-adv-x="1449" d="M193 526v809l163 15v-746q0 -54 1 -84t5 -82.5t13.5 -84t25.5 -74.5t43.5 -68.5t64 -50t89.5 -36t119 -11.5q59 0 107.5 9.5t85 25t65 42t47.5 52.5t32.5 64.5t20.5 70.5t11 77.5t5 79.5t1 82v719l165 15v-697q0 -120 -15.5 -216.5t-53.5 -182.5t-98.5 -143t-155.5 -90 t-219 -33q-104 0 -187 21t-136.5 52.5t-92.5 81t-59 93.5t-31 103.5t-13.5 98t-2.5 88.5zM539 1475l290 274l80 -70l-319 -249z" />
<glyph unicode="&#xdb;" horiz-adv-x="1449" d="M193 526v809l163 15v-746q0 -54 1 -84t5 -82.5t13.5 -84t25.5 -74.5t43.5 -68.5t64 -50t89.5 -36t119 -11.5q59 0 107.5 9.5t85 25t65 42t47.5 52.5t32.5 64.5t20.5 70.5t11 77.5t5 79.5t1 82v719l165 15v-697q0 -120 -15.5 -216.5t-53.5 -182.5t-98.5 -143t-155.5 -90 t-219 -33q-104 0 -187 21t-136.5 52.5t-92.5 81t-59 93.5t-31 103.5t-13.5 98t-2.5 88.5zM459 1466l229 250h70l233 -248l-55 -49l-213 193l-213 -185z" />
<glyph unicode="&#xdc;" horiz-adv-x="1449" d="M193 526v809l163 15v-746q0 -54 1 -84t5 -82.5t13.5 -84t25.5 -74.5t43.5 -68.5t64 -50t89.5 -36t119 -11.5q59 0 107.5 9.5t85 25t65 42t47.5 52.5t32.5 64.5t20.5 70.5t11 77.5t5 79.5t1 82v719l165 15v-697q0 -120 -15.5 -216.5t-53.5 -182.5t-98.5 -143t-155.5 -90 t-219 -33q-104 0 -187 21t-136.5 52.5t-92.5 81t-59 93.5t-31 103.5t-13.5 98t-2.5 88.5zM465 1575q0 37 26 63.5t64 26.5q37 0 63.5 -26.5t26.5 -63.5q0 -38 -26.5 -64t-63.5 -26q-38 0 -64 26t-26 64zM805 1575q0 37 26 63.5t64 26.5q37 0 63.5 -26.5t26.5 -63.5 q0 -38 -26.5 -64t-63.5 -26q-38 0 -64 26t-26 64z" />
<glyph unicode="&#xdd;" horiz-adv-x="1214" d="M63 1335l201 13l346 -643l361 643l180 -13l-459 -770v-565l-166 -12v575zM422 1475l291 274l80 -70l-320 -249z" />
<glyph unicode="&#xde;" horiz-adv-x="1101" d="M154 -12v1345l165 15v-261q141 19 226 21q138 3 245.5 -38t170.5 -127t59 -206q-6 -174 -132 -291t-368 -139q-47 -1 -65 -1t-66.5 2t-69.5 3l-2 -317zM319 430q60 -6 152 -8q186 -1 281 82t98 229q2 83 -44 144t-114.5 88t-144.5 24q-59 -3 -116 -9t-85 -10l-27 -5v-535 z" />
<glyph unicode="&#xdf;" horiz-adv-x="1259" d="M90 756v104h119q0 80 10 144.5t40.5 132.5t80.5 114t136.5 75.5t203.5 29.5q80 0 142.5 -26t101 -67t63.5 -97.5t35 -112.5t10 -117q-55 -4 -101.5 -19t-85.5 -43t-57 -75t-8 -107q3 -22 13 -40.5t19.5 -31t30 -26.5t31.5 -20t37.5 -19.5t34.5 -17.5q104 -56 136 -80 q93 -70 100 -172q9 -127 -85.5 -213t-242.5 -86q-55 0 -106 11t-84 26.5t-58.5 31t-37.5 26.5l-11 11l53 98q4 -4 12 -10t34.5 -22.5t54 -29t68.5 -22.5t81 -10q26 0 50 7.5t47.5 24.5t36.5 53t10 87q-1 23 -10 42.5t-28.5 36.5t-31 26t-37.5 24t-29 17q-9 6 -48.5 26.5 t-68 40t-63 50t-53.5 71.5t-19 88q0 60 26.5 113.5t66.5 88.5t80.5 57t74.5 28q0 140 -45 208t-168 68q-79 0 -132 -22t-81 -51.5t-42 -93.5t-16.5 -112t-2.5 -143v-831h-168v756h-119z" />
<glyph unicode="&#xe0;" horiz-adv-x="931" d="M80 293l8 145l547 62v71q0 67 -8 107.5t-29.5 62.5t-49 28.5t-75.5 6.5q-57 0 -131 -14t-119 -28l-45 -13l-18 104q197 60 332 60q58 0 102.5 -8t76 -21t53 -37.5t34.5 -50t19.5 -67t8.5 -79t2 -94.5v-526l-118 -16l-35 110q-22 -11 -57.5 -28t-117 -46.5t-128.5 -33.5 q-125 -9 -191.5 74.5t-60.5 230.5zM235 241q4 -35 13.5 -64.5t37.5 -50t72 -24.5q67 0 156 34.5t121 60.5v217l-397 -49q-2 -10 -2 -58q-5 -31 -1 -66zM285 1214l67 78l293 -278l-41 -51z" />
<glyph unicode="&#xe1;" horiz-adv-x="931" d="M80 293l8 145l547 62v71q0 67 -8 107.5t-29.5 62.5t-49 28.5t-75.5 6.5q-57 0 -131 -14t-119 -28l-45 -13l-18 104q197 60 332 60q58 0 102.5 -8t76 -21t53 -37.5t34.5 -50t19.5 -67t8.5 -79t2 -94.5v-526l-118 -16l-35 110q-22 -11 -57.5 -28t-117 -46.5t-128.5 -33.5 q-125 -9 -191.5 74.5t-60.5 230.5zM235 241q4 -35 13.5 -64.5t37.5 -50t72 -24.5q67 0 156 34.5t121 60.5v217l-397 -49q-2 -10 -2 -58q-5 -31 -1 -66zM281 1010l290 274l80 -70l-319 -249z" />
<glyph unicode="&#xe2;" horiz-adv-x="931" d="M80 293l8 145l547 62v71q0 67 -8 107.5t-29.5 62.5t-49 28.5t-75.5 6.5q-57 0 -131 -14t-119 -28l-45 -13l-18 104q197 60 332 60q58 0 102.5 -8t76 -21t53 -37.5t34.5 -50t19.5 -67t8.5 -79t2 -94.5v-526l-118 -16l-35 110q-22 -11 -57.5 -28t-117 -46.5t-128.5 -33.5 q-125 -9 -191.5 74.5t-60.5 230.5zM199 1001l229 250h70l233 -247l-55 -50l-213 193l-213 -184zM235 241q4 -35 13.5 -64.5t37.5 -50t72 -24.5q67 0 156 34.5t121 60.5v217l-397 -49q-2 -10 -2 -58q-5 -31 -1 -66z" />
<glyph unicode="&#xe3;" horiz-adv-x="931" d="M80 293l8 145l547 62v71q0 67 -8 107.5t-29.5 62.5t-49 28.5t-75.5 6.5q-57 0 -131 -14t-119 -28l-45 -13l-18 104q197 60 332 60q58 0 102.5 -8t76 -21t53 -37.5t34.5 -50t19.5 -67t8.5 -79t2 -94.5v-526l-118 -16l-35 110q-22 -11 -57.5 -28t-117 -46.5t-128.5 -33.5 q-125 -9 -191.5 74.5t-60.5 230.5zM195 1010q4 93 46 141.5t107 48.5q39 0 74.5 -19t57.5 -41.5t52 -41.5t60 -19t48.5 23t25.5 92l71 -4q0 -90 -34 -145.5t-105 -55.5q-34 0 -72.5 18.5t-66.5 41t-60.5 41t-56.5 18.5q-33 0 -52.5 -26t-22.5 -52l-3 -26zM235 241 q4 -35 13.5 -64.5t37.5 -50t72 -24.5q67 0 156 34.5t121 60.5v217l-397 -49q-2 -10 -2 -58q-5 -31 -1 -66z" />
<glyph unicode="&#xe4;" horiz-adv-x="931" d="M80 293l8 145l547 62v71q0 67 -8 107.5t-29.5 62.5t-49 28.5t-75.5 6.5q-57 0 -131 -14t-119 -28l-45 -13l-18 104q197 60 332 60q58 0 102.5 -8t76 -21t53 -37.5t34.5 -50t19.5 -67t8.5 -79t2 -94.5v-526l-118 -16l-35 110q-22 -11 -57.5 -28t-117 -46.5t-128.5 -33.5 q-125 -9 -191.5 74.5t-60.5 230.5zM205 1110q0 37 26 63.5t64 26.5q37 0 63.5 -26.5t26.5 -63.5q0 -38 -26.5 -64t-63.5 -26q-38 0 -64 26t-26 64zM235 241q4 -35 13.5 -64.5t37.5 -50t72 -24.5q67 0 156 34.5t121 60.5v217l-397 -49q-2 -10 -2 -58q-5 -31 -1 -66zM545 1110 q0 37 26 63.5t64 26.5q37 0 63.5 -26.5t26.5 -63.5q0 -38 -26.5 -64t-63.5 -26q-38 0 -64 26t-26 64z" />
<glyph unicode="&#xe5;" horiz-adv-x="931" d="M80 293l8 145l547 62v71q0 67 -8 107.5t-29.5 62.5t-49 28.5t-75.5 6.5q-57 0 -131 -14t-119 -28l-45 -13l-18 104q197 60 332 60q58 0 102.5 -8t76 -21t53 -37.5t34.5 -50t19.5 -67t8.5 -79t2 -94.5v-526l-118 -16l-35 110q-22 -11 -57.5 -28t-117 -46.5t-128.5 -33.5 q-125 -9 -191.5 74.5t-60.5 230.5zM235 241q4 -35 13.5 -64.5t37.5 -50t72 -24.5q67 0 156 34.5t121 60.5v217l-397 -49q-2 -10 -2 -58q-5 -31 -1 -66zM260 1151q0 73 60 124.5t145 51.5q86 0 146.5 -51.5t60.5 -124.5q0 -72 -60.5 -123t-146.5 -51q-85 0 -145 51t-60 123z M354 1153q0 -44 32.5 -75t78.5 -31t79.5 31t33.5 75q0 43 -33.5 75t-79.5 32q-45 0 -78 -32t-33 -75z" />
<glyph unicode="&#xe6;" horiz-adv-x="1472" d="M78 293l8 119l522 61v86q0 67 -3.5 100.5t-19 61t-44.5 36.5t-82 9q-41 0 -66 -2q-145 -14 -235 -31l-11 109q134 19 254 26q78 4 105 4q111 0 166.5 -29.5t75.5 -101.5q121 138 296 138q81 0 145 -23t105.5 -61.5t67 -92.5t34.5 -114t5 -127l-639 -70q5 -137 74.5 -212 t199.5 -75q36 0 112.5 19t135.5 38l59 19l25 -78q-26 -13 -69 -32t-142.5 -50.5t-161.5 -31.5q-224 0 -321 153q-262 -146 -350 -153q-125 -9 -188.5 74t-57.5 231zM231 289q0 -95 28.5 -141t90.5 -46q65 0 158 42t129 71q-22 80 -29 172l-372 -49q-5 -26 -5 -49zM764 479 q72 9 272.5 36t208.5 30q1 45 -10.5 84.5t-36 73t-70 53.5t-106.5 20q-113 0 -182.5 -84.5t-75.5 -212.5z" />
<glyph unicode="&#xe7;" horiz-adv-x="901" d="M82 403q0 86 25.5 166.5t73 147t123 111t169.5 53.5q40 4 62 4q71 0 142.5 -20t107.5 -40l36 -20l-43 -96q-15 9 -41.5 22.5t-96.5 36t-126 23.5q-107 2 -183.5 -80t-84.5 -246q-10 -178 60.5 -274.5t182.5 -96.5q36 0 109.5 23.5t129.5 46.5l56 24l31 -75 q-8 -5 -22.5 -13.5t-57 -30.5t-83 -39t-94 -30.5t-97.5 -13.5q-54 0 -104.5 11.5t-101.5 41.5t-88.5 76t-61 120t-23.5 168zM309 -367q7 0 18 1.5t39.5 7.5t50.5 14.5t40 26.5t18 41q0 36 -32.5 57t-64.5 23l-32 3l-14 50l160 145h98l-133 -137q5 0 14 -2t31 -10.5t39 -22.5 t31 -41t14 -63q0 -39 -27.5 -70t-67 -47t-78.5 -26.5t-67 -13.5l-27 -3z" />
<glyph unicode="&#xe8;" horiz-adv-x="944" d="M80 369q-4 146 45 262t150 185t239 69q81 0 145 -23t105 -61.5t66.5 -92.5t34.5 -114t5 -127l-639 -76q5 -137 75 -212t200 -75q35 0 111.5 19t136.5 38l59 19l25 -78q-26 -13 -69 -32t-142.5 -50.5t-161.5 -31.5q-55 0 -105.5 10.5t-101 37.5t-88.5 68.5t-62.5 109.5 t-27.5 155zM233 479q60 7 265.5 38t216.5 34q1 45 -10.5 84.5t-36 73t-70 53.5t-106.5 20q-244 0 -259 -303zM291 1214l67 78l293 -278l-41 -51z" />
<glyph unicode="&#xe9;" horiz-adv-x="944" d="M80 369q-4 146 45 262t150 185t239 69q81 0 145 -23t105 -61.5t66.5 -92.5t34.5 -114t5 -127l-639 -76q5 -137 75 -212t200 -75q35 0 111.5 19t136.5 38l59 19l25 -78q-26 -13 -69 -32t-142.5 -50.5t-161.5 -31.5q-55 0 -105.5 10.5t-101 37.5t-88.5 68.5t-62.5 109.5 t-27.5 155zM233 479q60 7 265.5 38t216.5 34q1 45 -10.5 84.5t-36 73t-70 53.5t-106.5 20q-244 0 -259 -303zM287 1010l291 274l79 -70l-319 -249z" />
<glyph unicode="&#xea;" horiz-adv-x="944" d="M80 369q-4 146 45 262t150 185t239 69q81 0 145 -23t105 -61.5t66.5 -92.5t34.5 -114t5 -127l-639 -76q5 -137 75 -212t200 -75q35 0 111.5 19t136.5 38l59 19l25 -78q-26 -13 -69 -32t-142.5 -50.5t-161.5 -31.5q-55 0 -105.5 10.5t-101 37.5t-88.5 68.5t-62.5 109.5 t-27.5 155zM205 1001l229 250h70l233 -247l-55 -50l-213 193l-213 -184zM233 479q60 7 265.5 38t216.5 34q1 45 -10.5 84.5t-36 73t-70 53.5t-106.5 20q-244 0 -259 -303z" />
<glyph unicode="&#xeb;" horiz-adv-x="944" d="M80 369q-4 146 45 262t150 185t239 69q81 0 145 -23t105 -61.5t66.5 -92.5t34.5 -114t5 -127l-639 -76q5 -137 75 -212t200 -75q35 0 111.5 19t136.5 38l59 19l25 -78q-26 -13 -69 -32t-142.5 -50.5t-161.5 -31.5q-55 0 -105.5 10.5t-101 37.5t-88.5 68.5t-62.5 109.5 t-27.5 155zM211 1110q0 37 26 63.5t64 26.5q37 0 63.5 -26.5t26.5 -63.5q0 -38 -26.5 -64t-63.5 -26q-38 0 -64 26t-26 64zM233 479q60 7 265.5 38t216.5 34q1 45 -10.5 84.5t-36 73t-70 53.5t-106.5 20q-244 0 -259 -303zM551 1110q0 37 26 63.5t64 26.5q37 0 63.5 -26.5 t26.5 -63.5q0 -38 -26.5 -64t-63.5 -26q-38 0 -64 26t-26 64z" />
<glyph unicode="&#xec;" horiz-adv-x="460" d="M51 1214l68 78l293 -278l-41 -51zM152 -12l2 878l153 8v-874z" />
<glyph unicode="&#xed;" horiz-adv-x="460" d="M45 1010l291 274l80 -70l-320 -249zM152 -12l2 878l153 8v-874z" />
<glyph unicode="&#xee;" horiz-adv-x="460" d="M-35 1001l230 250h69l234 -247l-56 -50l-213 193l-213 -184zM152 -12l2 878l153 8v-874z" />
<glyph unicode="&#xef;" horiz-adv-x="460" d="M-29 1110q0 37 26 63.5t64 26.5q37 0 64 -26.5t27 -63.5q0 -38 -27 -64t-64 -26q-38 0 -64 26t-26 64zM152 -12l2 878l153 8v-874zM311 1110q0 37 26 63.5t64 26.5q37 0 64 -26.5t27 -63.5q0 -38 -27 -64t-64 -26q-38 0 -64 26t-26 64z" />
<glyph unicode="&#xf0;" horiz-adv-x="1077" d="M96 438q3 85 32.5 158t75.5 123t103.5 86t116.5 52.5t115 16.5q88 0 147.5 -16t118.5 -70q-33 209 -189 347l-206 -146l-60 76l187 127q-69 44 -149.5 73.5t-126.5 36.5l-46 7l25 112q266 -40 424 -143l200 139l54 -69l-179 -127q131 -114 186.5 -284.5t67.5 -408.5 q2 -132 -34 -236.5t-100 -170t-146.5 -99.5t-177.5 -34q-198 0 -322 122.5t-117 327.5zM262 436q0 -160 77 -246t198 -86q124 0 204 88t80 254q0 151 -74.5 231.5t-201.5 80.5q-36 0 -73 -10t-75.5 -34t-68 -59.5t-48 -92.5t-18.5 -126z" />
<glyph unicode="&#xf1;" horiz-adv-x="1044" d="M152 -12l2 880l112 17l39 -135q11 7 41 26t43 27t37 22.5t38 22t31 14.5t29 10q54 13 97 13q119 0 198.5 -70t79.5 -184v-631l-156 -12v641q0 64 -45 102.5t-112 38.5q-39 0 -68 -10q-19 -6 -39 -14.5t-46 -23t-40 -23t-47 -29t-41 -25.5v-645zM250 1010q4 93 46 141.5 t107 48.5q39 0 74.5 -19t57.5 -41.5t52 -41.5t60 -19t48.5 23t25.5 92l72 -4q0 -90 -34.5 -145.5t-105.5 -55.5q-34 0 -72.5 18.5t-66.5 41t-60.5 41t-56.5 18.5q-33 0 -52.5 -26t-22.5 -52l-3 -26z" />
<glyph unicode="&#xf2;" horiz-adv-x="1062" d="M82 440q4 108 46.5 195.5t108.5 139.5t139.5 80.5t147.5 31.5q216 9 336.5 -104t120.5 -328q0 -213 -129 -342.5t-332 -135.5q-211 -6 -327.5 119.5t-110.5 343.5zM240 438q0 -171 76.5 -261.5t209.5 -90.5q136 0 217.5 93t81.5 270q0 160 -78.5 244.5t-218.5 84.5 q-50 0 -97.5 -18t-92 -55.5t-71.5 -106.5t-27 -160zM350 1214l68 78l293 -278l-41 -51z" />
<glyph unicode="&#xf3;" horiz-adv-x="1062" d="M82 440q4 108 46.5 195.5t108.5 139.5t139.5 80.5t147.5 31.5q216 9 336.5 -104t120.5 -328q0 -213 -129 -342.5t-332 -135.5q-211 -6 -327.5 119.5t-110.5 343.5zM240 438q0 -171 76.5 -261.5t209.5 -90.5q136 0 217.5 93t81.5 270q0 160 -78.5 244.5t-218.5 84.5 q-50 0 -97.5 -18t-92 -55.5t-71.5 -106.5t-27 -160zM346 1010l291 274l80 -70l-320 -249z" />
<glyph unicode="&#xf4;" horiz-adv-x="1062" d="M82 440q4 108 46.5 195.5t108.5 139.5t139.5 80.5t147.5 31.5q216 9 336.5 -104t120.5 -328q0 -213 -129 -342.5t-332 -135.5q-211 -6 -327.5 119.5t-110.5 343.5zM240 438q0 -171 76.5 -261.5t209.5 -90.5q136 0 217.5 93t81.5 270q0 160 -78.5 244.5t-218.5 84.5 q-50 0 -97.5 -18t-92 -55.5t-71.5 -106.5t-27 -160zM264 1001l230 250h69l234 -247l-56 -50l-213 193l-213 -184z" />
<glyph unicode="&#xf5;" horiz-adv-x="1062" d="M82 440q4 108 46.5 195.5t108.5 139.5t139.5 80.5t147.5 31.5q216 9 336.5 -104t120.5 -328q0 -213 -129 -342.5t-332 -135.5q-211 -6 -327.5 119.5t-110.5 343.5zM240 438q0 -171 76.5 -261.5t209.5 -90.5q136 0 217.5 93t81.5 270q0 160 -78.5 244.5t-218.5 84.5 q-50 0 -97.5 -18t-92 -55.5t-71.5 -106.5t-27 -160zM260 1010q4 93 46.5 141.5t107.5 48.5q39 0 74.5 -19t57.5 -41.5t51.5 -41.5t59.5 -19t48.5 23t25.5 92l72 -4q0 -90 -34 -145.5t-105 -55.5q-34 0 -72.5 18.5t-66.5 41t-60.5 41t-56.5 18.5q-33 0 -52.5 -26t-22.5 -52 l-3 -26z" />
<glyph unicode="&#xf6;" horiz-adv-x="1062" d="M82 440q4 108 46.5 195.5t108.5 139.5t139.5 80.5t147.5 31.5q216 9 336.5 -104t120.5 -328q0 -213 -129 -342.5t-332 -135.5q-211 -6 -327.5 119.5t-110.5 343.5zM240 438q0 -171 76.5 -261.5t209.5 -90.5q136 0 217.5 93t81.5 270q0 160 -78.5 244.5t-218.5 84.5 q-50 0 -97.5 -18t-92 -55.5t-71.5 -106.5t-27 -160zM270 1110q0 37 26 63.5t64 26.5q37 0 64 -26.5t27 -63.5q0 -38 -27 -64t-64 -26q-38 0 -64 26t-26 64zM610 1110q0 37 26 63.5t64 26.5q37 0 64 -26.5t27 -63.5q0 -38 -27 -64t-64 -26q-38 0 -64 26t-26 64z" />
<glyph unicode="&#xf7;" horiz-adv-x="1114" d="M129 565l4 101h858l-6 -101h-856zM453 330q0 43 29.5 72.5t72.5 29.5q42 0 72 -30t30 -72q0 -41 -30.5 -71t-71.5 -30q-43 0 -72.5 29.5t-29.5 71.5zM453 909q0 41 29.5 71t72.5 30q41 0 71.5 -30t30.5 -71q0 -42 -30 -72t-72 -30q-43 0 -72.5 29.5t-29.5 72.5z" />
<glyph unicode="&#xf8;" horiz-adv-x="1155" d="M106 -33l123 139q-121 127 -112 330q4 108 49 196.5t113 141.5t145 81t151 28q162 0 279 -66l117 133l69 -61l-112 -125q119 -113 119 -313q0 -213 -136.5 -345.5t-339.5 -132.5q-163 0 -278 80l-127 -143zM272 434q0 -134 54 -219l442 504q-76 55 -188 55 q-40 0 -80.5 -10.5t-82 -36t-73.5 -63t-52 -97t-20 -133.5zM379 150q80 -68 196 -68q138 0 227 93.5t89 268.5q0 125 -60 211z" />
<glyph unicode="&#xf9;" horiz-adv-x="1071" d="M145 295v577l154 11v-598q0 -91 43 -146t115 -55q45 0 90 18.5t113.5 63t80.5 51.5l2 655l152 11v-889l-119 -14l-35 145q-136 -91 -197 -118q-44 -20 -77 -25q-61 -9 -118 5.5t-103 51t-73.5 103t-27.5 153.5zM354 1214l68 78l293 -278l-41 -51z" />
<glyph unicode="&#xfa;" horiz-adv-x="1071" d="M145 295v577l154 11v-598q0 -91 43 -146t115 -55q45 0 90 18.5t113.5 63t80.5 51.5l2 655l152 11v-889l-119 -14l-35 145q-136 -91 -197 -118q-44 -20 -77 -25q-61 -9 -118 5.5t-103 51t-73.5 103t-27.5 153.5zM350 1010l291 274l80 -70l-320 -249z" />
<glyph unicode="&#xfb;" horiz-adv-x="1071" d="M145 295v577l154 11v-598q0 -91 43 -146t115 -55q45 0 90 18.5t113.5 63t80.5 51.5l2 655l152 11v-889l-119 -14l-35 145q-136 -91 -197 -118q-44 -20 -77 -25q-61 -9 -118 5.5t-103 51t-73.5 103t-27.5 153.5zM268 1001l230 250h69l234 -247l-56 -50l-213 193l-213 -184 z" />
<glyph unicode="&#xfc;" horiz-adv-x="1071" d="M145 295v577l154 11v-598q0 -91 43 -146t115 -55q45 0 90 18.5t113.5 63t80.5 51.5l2 655l152 11v-889l-119 -14l-35 145q-136 -91 -197 -118q-44 -20 -77 -25q-61 -9 -118 5.5t-103 51t-73.5 103t-27.5 153.5zM274 1110q0 37 26.5 63.5t64.5 26.5q37 0 63.5 -26.5 t26.5 -63.5q0 -38 -26.5 -64t-63.5 -26q-38 0 -64.5 26t-26.5 64zM614 1110q0 37 26.5 63.5t64.5 26.5q37 0 63.5 -26.5t26.5 -63.5q0 -38 -26.5 -64t-63.5 -26q-38 0 -64.5 26t-26.5 64z" />
<glyph unicode="&#xfd;" horiz-adv-x="1011" d="M131 866l152 21l241 -752l320 752l135 -37l-543 -1292l-143 24l209 498h-105zM383 1010l291 274l80 -70l-320 -249z" />
<glyph unicode="&#xfe;" horiz-adv-x="1079" d="M156 -453v1786l155 15v-545q193 69 273 69q191 0 293 -105t102 -298q0 -73 -16 -142t-50 -131t-83 -108t-119.5 -73t-155.5 -27q-80 0 -244 75v-509zM311 174q4 -2 24.5 -11t35.5 -15.5t40.5 -16t46 -15t44.5 -9t43 -1.5q131 13 201 84t77 226q5 100 -24 180t-91.5 127.5 t-150.5 48.5q-63 0 -246 -59v-539z" />
<glyph unicode="&#xff;" horiz-adv-x="968" d="M70 866l151 21l242 -752l319 752l136 -37l-543 -1292l-144 24l209 498h-104zM223 1110q0 37 26 63.5t64 26.5q37 0 63.5 -26.5t26.5 -63.5q0 -38 -26.5 -64t-63.5 -26q-38 0 -64 26t-26 64zM563 1110q0 37 26 63.5t64 26.5q37 0 63.5 -26.5t26.5 -63.5q0 -38 -26.5 -64 t-63.5 -26q-38 0 -64 26t-26 64z" />
<glyph unicode="&#x152;" horiz-adv-x="2209" d="M119 664q0 200 96 360t256.5 247t351.5 87q317 0 484 -184v161h807v-110h-646v-459h553v-117h-553v-536h666v-113h-829v211q-184 -221 -525 -229q-310 -6 -485.5 173.5t-175.5 508.5zM289 684q0 -127 30.5 -227t80.5 -163.5t118.5 -105t139 -58.5t147.5 -17 q106 0 196.5 35t159.5 102.5t107 176.5t37 249q-3 267 -133.5 415t-360.5 148q-68 0 -135 -15.5t-138.5 -55t-125.5 -100t-88.5 -160t-34.5 -224.5z" />
<glyph unicode="&#x153;" horiz-adv-x="1693" d="M84 451q4 108 47 196.5t108 141t138 80.5t143 28q134 0 234 -48t155 -142q120 172 344 172q81 0 145 -23t105.5 -61.5t67 -92.5t34.5 -114t5 -127l-639 -70q5 -137 74.5 -212t199.5 -75q35 0 111.5 19t135.5 38l60 19l25 -78q-26 -13 -69 -32t-142.5 -50.5t-161.5 -31.5 q-236 0 -332 170q-61 -82 -154 -126t-202 -44q-195 0 -317 126t-115 337zM240 449q0 -170 76.5 -261.5t203.5 -91.5q121 0 203.5 80t95.5 230q0 31 2 47v6q0 158 -81 243.5t-216 85.5q-38 0 -75.5 -10.5t-75.5 -35.5t-67 -62.5t-47.5 -97t-18.5 -133.5zM973 479 q70 8 270.5 35.5t210.5 30.5q1 45 -10.5 84.5t-36 73t-70 53.5t-106.5 20q-244 0 -258 -297z" />
<glyph unicode="&#x178;" horiz-adv-x="1214" d="M63 1335l201 13l346 -643l361 643l180 -13l-459 -770v-565l-166 -12v575zM346 1575q0 37 26 63.5t64 26.5q37 0 63.5 -26.5t26.5 -63.5q0 -38 -26.5 -64t-63.5 -26q-38 0 -64 26t-26 64zM686 1575q0 37 26 63.5t64 26.5q37 0 63.5 -26.5t26.5 -63.5q0 -38 -26.5 -64 t-63.5 -26q-38 0 -64 26t-26 64z" />
<glyph unicode="&#x2c6;" horiz-adv-x="679" d="M72 1001l229 250h70l233 -247l-55 -50l-213 193l-213 -184z" />
<glyph unicode="&#x2dc;" horiz-adv-x="671" d="M68 1010q4 93 46 141.5t107 48.5q39 0 74.5 -19t57.5 -41.5t52 -41.5t60 -19t48.5 23t25.5 92l71 -4q0 -90 -34 -145.5t-105 -55.5q-34 0 -72.5 18.5t-66.5 41t-60.5 41t-56.5 18.5q-33 0 -52.5 -26t-22.5 -52l-3 -26z" />
<glyph unicode="&#x2000;" horiz-adv-x="896" />
<glyph unicode="&#x2001;" horiz-adv-x="1792" />
<glyph unicode="&#x2002;" horiz-adv-x="896" />
<glyph unicode="&#x2003;" horiz-adv-x="1792" />
<glyph unicode="&#x2004;" horiz-adv-x="597" />
<glyph unicode="&#x2005;" horiz-adv-x="448" />
<glyph unicode="&#x2006;" horiz-adv-x="298" />
<glyph unicode="&#x2007;" horiz-adv-x="298" />
<glyph unicode="&#x2008;" horiz-adv-x="224" />
<glyph unicode="&#x2009;" horiz-adv-x="358" />
<glyph unicode="&#x200a;" horiz-adv-x="99" />
<glyph unicode="&#x2010;" horiz-adv-x="659" d="M57 438v109h541v-109h-541z" />
<glyph unicode="&#x2011;" horiz-adv-x="659" d="M57 438v109h541v-109h-541z" />
<glyph unicode="&#x2012;" horiz-adv-x="659" d="M57 438v109h541v-109h-541z" />
<glyph unicode="&#x2013;" horiz-adv-x="1089" d="M61 430l5 105h956l-6 -105h-955z" />
<glyph unicode="&#x2014;" horiz-adv-x="2177" d="M61 438l5 97h2050l-7 -97h-2048z" />
<glyph unicode="&#x2018;" horiz-adv-x="405" d="M88 1139q0 49 21 96q23 46 80 101.5t103 87.5l46 32l43 -53q-5 -4 -13.5 -11t-31 -28.5t-41 -42t-35.5 -48t-22 -50.5q-4 -12 1.5 -21t10.5 -11t18 -7q34 -14 56 -43t22 -66q0 -47 -34 -80.5t-81 -33.5q-70 0 -106.5 53t-36.5 125z" />
<glyph unicode="&#x2019;" horiz-adv-x="405" d="M43 995q5 4 14 11t31.5 28.5t41 42.5t36 48.5t22.5 50.5q-1 7 0.5 10.5t-1.5 8l-4 6t-5.5 4.5t-6 3.5t-7 2.5t-6.5 3q-35 14 -57.5 43t-22.5 66q0 47 34 81t81 34q71 0 108 -53t37 -125q0 -50 -21 -97q-23 -46 -80 -101.5t-103 -87.5l-46 -32z" />
<glyph unicode="&#x201a;" horiz-adv-x="497" d="M90 -250q5 4 13.5 11t31 28.5t41 42t35.5 48t22 50.5q3 12 -2.5 21t-10.5 11t-17 7q-34 14 -56 43t-22 66q0 47 34 81t81 34q70 0 106.5 -53.5t36.5 -125.5q0 -49 -21 -96q-23 -46 -80 -101.5t-103 -87.5l-46 -32z" />
<glyph unicode="&#x201c;" horiz-adv-x="794" d="M90 1139q0 49 21 96q23 46 80 101.5t103 87.5l46 32l43 -53q-5 -4 -13.5 -11t-31 -28.5t-41 -42t-35.5 -48t-22 -50.5q-3 -12 2.5 -21t10.5 -11t17 -7q34 -14 56 -43t22 -66q0 -47 -34 -80.5t-81 -33.5q-70 0 -106.5 53t-36.5 125zM446 1141q0 51 19 94q23 46 80 101.5 t103 87.5l46 32l45 -53q-5 -4 -14 -11t-31.5 -28.5t-41 -42t-36 -48t-22.5 -50.5q-3 -4 -1 -9t1.5 -7.5t3 -6t4.5 -5t5.5 -3.5t6 -3t6 -2.5t5.5 -2.5q35 -14 57.5 -43t22.5 -66q0 -47 -34 -80.5t-81 -33.5q-71 0 -107.5 53.5t-36.5 126.5z" />
<glyph unicode="&#x201d;" horiz-adv-x="761" d="M37 995q5 4 14 11t31.5 28.5t41 42.5t36 48.5t22.5 50.5q1 4 1 8t-1 7t-2 5.5t-3.5 4.5t-4.5 3.5t-5.5 3t-5 2.5t-6 2.5t-5.5 1.5q-34 14 -56 43t-22 66q0 47 33.5 81t80.5 34q70 0 107 -53t37 -125q0 -50 -21 -97q-22 -46 -79 -101.5t-104 -87.5l-46 -32zM385 995 q5 4 14 11t31.5 28.5t41 42.5t36 48.5t22.5 50.5q-1 7 0.5 10.5t-1.5 8l-4 6t-5.5 4.5t-6 3.5t-7 2.5t-6.5 3q-35 14 -57.5 43t-22.5 66q0 47 34 81t81 34q71 0 107 -54t36 -127q0 -51 -19 -94q-23 -46 -80 -101.5t-103 -87.5l-46 -32z" />
<glyph unicode="&#x201e;" horiz-adv-x="847" d="M86 -250q5 4 13.5 11t31 28.5t41 42t35.5 48t22 50.5q3 12 -2.5 21t-10.5 11t-17 7q-34 14 -56 43t-22 66q0 47 34 81t81 34q70 0 106.5 -53.5t36.5 -125.5q0 -49 -21 -96q-23 -46 -80 -101.5t-103 -87.5l-46 -32zM430 -250q5 4 13.5 11t31 28.5t41 42t35.5 48t22 50.5 q3 12 -2.5 21t-10.5 11t-17 7q-34 14 -56 43t-22 66q0 47 34 81t81 34q70 0 106.5 -53.5t36.5 -125.5q0 -49 -21 -96q-23 -46 -80 -101.5t-103 -87.5l-46 -32z" />
<glyph unicode="&#x2022;" horiz-adv-x="634" d="M98 524q0 93 65.5 158.5t158.5 65.5q92 0 157.5 -66t65.5 -158t-65.5 -157.5t-157.5 -65.5q-94 0 -159 65.5t-65 157.5z" />
<glyph unicode="&#x2026;" horiz-adv-x="1699" d="M162 88q0 47 33.5 81t80.5 34q49 0 83 -33.5t34 -81.5q0 -50 -33.5 -83.5t-83.5 -33.5q-47 0 -80.5 34t-33.5 83zM735 88q0 48 34 81.5t83 33.5q47 0 81 -34t34 -81q0 -49 -33.5 -83t-81.5 -34q-50 0 -83.5 33.5t-33.5 83.5zM1311 88q0 47 33.5 81t80.5 34q49 0 83 -33.5 t34 -81.5q0 -50 -34 -83.5t-83 -33.5q-47 0 -80.5 34t-33.5 83z" />
<glyph unicode="&#x202f;" horiz-adv-x="358" />
<glyph unicode="&#x2039;" horiz-adv-x="532" d="M66 422v53l311 322l74 -64l-226 -284l230 -293l-82 -62z" />
<glyph unicode="&#x203a;" horiz-adv-x="532" d="M80 156l229 293l-225 284l74 64l311 -322v-53l-307 -328z" />
<glyph unicode="&#x205f;" horiz-adv-x="448" />
<glyph unicode="&#x20ac;" horiz-adv-x="1214" d="M6 502v88h84v45q0 28 4 86h-88v90h103q23 101 71.5 187.5t111 147.5t137.5 106t150 68.5t148 29.5q233 17 436 -93l-63 -137q-6 5 -17.5 13t-49.5 28t-79.5 35t-105.5 25t-129 6q-104 -6 -194 -52t-159 -140t-94 -224h568v-90h-580v-39q-2 -34 2 -92h578v-88h-561 q21 -90 67 -163.5t103.5 -119.5t121.5 -70.5t127 -25.5q60 -1 126.5 11t119 30.5t96 37t66.5 31.5l24 13l58 -101q-11 -6 -31 -16t-79.5 -36t-116.5 -46.5t-133 -38.5t-138 -20q-231 -6 -393.5 127t-198.5 387h-92z" />
<glyph unicode="&#x2122;" horiz-adv-x="1286" d="M37 1270v71h475v-71h-186v-463l-105 -6v469h-184zM606 801l35 540l121 7l137 -430l133 423l129 7l35 -543l-102 -4l-7 418l-145 -414l-86 -4l-139 407l-17 -399z" />
<glyph unicode="&#x25fc;" horiz-adv-x="901" d="M0 0v901h901v-901h-901z" />
</font>
</defs>
</svg>
